<svg width="41" height="42" viewBox="0 0 41 42" fill="none" xmlns="http://www.w3.org/2000/svg">
<g clip-path="url(#clip0_11_2136)">
<circle cx="20.5" cy="21.2255" r="20.5" fill="white"/>
<path d="M20.5 0.725464C9.19674 0.725464 0 9.92221 0 21.2255C0 32.5287 9.19674 41.7255 20.5 41.7255C31.8033 41.7255 41 32.5287 41 21.2255C41 9.92221 31.8033 0.725464 20.5 0.725464ZM31.9574 15.8307L18.8559 28.8295C18.0852 29.6002 16.8521 29.6515 16.0301 28.8809L9.09399 22.5613C8.27193 21.7906 8.22055 20.5062 8.93985 19.6841C9.71053 18.8621 10.995 18.8107 11.817 19.5814L17.3145 24.6164L29.0288 12.9022C29.8509 12.0801 31.1353 12.0801 31.9574 12.9022C32.7794 13.7242 32.7794 15.0087 31.9574 15.8307Z" fill="#21E29D"/>
</g>
<defs>
<clipPath id="clip0_11_2136">
<rect width="41" height="41" fill="white" transform="translate(0 0.725586)"/>
</clipPath>
</defs>
</svg>
