<svg width="64" height="64" viewBox="0 0 64 64" fill="none" xmlns="http://www.w3.org/2000/svg">
<circle cx="32.3779" cy="32.4961" r="31.5" fill="black"/>
<path fill-rule="evenodd" clip-rule="evenodd" d="M42.9722 26.4017C42.8893 24.6232 42.4893 23.0478 41.2066 21.7498C39.9286 20.4519 38.3776 20.0456 36.6266 19.9564C34.8219 19.8524 29.4127 19.8524 27.608 19.9564C25.8619 20.0407 24.3108 20.4469 23.028 21.7449C21.7452 23.0428 21.3502 24.6183 21.2624 26.3968C21.1599 28.2298 21.1599 33.7239 21.2624 35.5569C21.3453 37.3354 21.7452 38.9108 23.028 40.2088C24.3108 41.5068 25.857 41.913 27.608 42.0022C29.4127 42.1062 34.8219 42.1062 36.6266 42.0022C38.3776 41.918 39.9286 41.5117 41.2066 40.2088C42.4845 38.9108 42.8844 37.3354 42.9722 35.5569C43.0746 33.7239 43.0746 28.2347 42.9722 26.4017ZM37.9534 26.3822C38.6753 26.3822 39.2606 25.7927 39.2606 25.0545C39.2606 24.3213 38.6753 23.7268 37.9534 23.7268C37.2315 23.7268 36.6462 24.3213 36.6462 25.0545C36.6462 25.7877 37.2267 26.3822 37.9534 26.3822ZM32.1198 25.2874C29.0177 25.2874 26.5155 27.8288 26.5155 30.9796C26.5155 34.1304 29.0177 36.6719 32.1198 36.6719C35.2219 36.6719 37.7241 34.1304 37.7241 30.9796C37.7241 27.8288 35.2219 25.2874 32.1198 25.2874ZM32.1199 34.6801C30.1152 34.6801 28.4764 33.0205 28.4764 30.9794C28.4764 28.9383 30.1103 27.2787 32.1199 27.2787C34.1294 27.2787 35.7634 28.9383 35.7634 30.9794C35.7634 33.0205 34.1245 34.6801 32.1199 34.6801ZM38.5631 39.6342C39.5239 39.2428 40.2604 38.4947 40.6409 37.5237C41.1304 36.2745 41.1031 33.5418 41.0855 31.7704C41.0825 31.4765 41.0799 31.2092 41.0799 30.9794C41.0799 30.7495 41.0825 30.4822 41.0855 30.1885C41.1031 28.418 41.1304 25.6885 40.6409 24.435C40.2556 23.4591 39.5191 22.711 38.5631 22.3246C37.3292 21.8301 34.6258 21.8564 32.8822 21.8734C32.5994 21.8762 32.3418 21.8787 32.1199 21.8787C31.8936 21.8787 31.6304 21.876 31.3412 21.873C29.5981 21.8551 26.9108 21.8274 25.6767 22.3246C24.7158 22.7159 23.9793 23.464 23.5988 24.435C23.112 25.6882 23.1379 28.4341 23.1547 30.205C23.1574 30.4923 23.1599 30.7539 23.1599 30.9794C23.1599 31.2092 23.1572 31.4765 23.1543 31.7703C23.1366 33.5408 23.1094 36.2702 23.5988 37.5237C23.9842 38.4997 24.7207 39.2478 25.6767 39.6342C26.9105 40.1286 29.614 40.1023 31.3575 40.0853C31.6403 40.0826 31.8979 40.0801 32.1199 40.0801C32.3461 40.0801 32.6093 40.0828 32.8986 40.0857C34.6417 40.1037 37.329 40.1313 38.5631 39.6342Z" fill="white"/>
</svg>
