<svg width="64" height="64" viewBox="0 0 64 64" fill="none" xmlns="http://www.w3.org/2000/svg">
<circle cx="31.9395" cy="32.4961" r="31.5" fill="black"/>
<path d="M41.1464 27.5435C41.1618 27.7611 41.1618 27.9788 41.1618 28.1964C41.1618 34.8331 36.1592 42.4801 27.0157 42.4801C24.1988 42.4801 21.5821 41.6563 19.3809 40.2264C19.7811 40.273 20.1659 40.2886 20.5815 40.2886C22.9058 40.2886 25.0454 39.4959 26.7541 38.1437C24.5683 38.0971 22.7365 36.6516 22.1054 34.6621C22.4133 34.7087 22.7211 34.7398 23.0444 34.7398C23.4908 34.7398 23.9372 34.6776 24.3528 34.5689C22.0746 34.1026 20.366 32.082 20.366 29.6418V29.5797C21.0278 29.9527 21.7975 30.1858 22.6133 30.2169C21.2741 29.3154 20.3968 27.7767 20.3968 26.0359C20.3968 25.1033 20.643 24.2485 21.074 23.5024C23.5215 26.5488 27.2004 28.5382 31.3257 28.7559C31.2488 28.3828 31.2026 27.9943 31.2026 27.6057C31.2026 24.8391 33.4192 22.5854 36.1745 22.5854C37.606 22.5854 38.899 23.1916 39.8072 24.1708C40.9308 23.9532 42.0083 23.5335 42.9628 22.9585C42.5933 24.1242 41.8083 25.1034 40.777 25.7251C41.7775 25.6163 42.7473 25.3365 43.64 24.948C42.9628 25.9426 42.1162 26.8285 41.1464 27.5435Z" fill="white"/>
</svg>
