<svg width="252" height="73" viewBox="0 0 252 73" fill="none" xmlns="http://www.w3.org/2000/svg">
<path d="M242.584 72.8755H9.33017C4.20091 72.8755 0 68.774 0 63.7661V9.10945C0 4.10154 4.20091 1.4106e-05 9.33017 1.4106e-05H242.584C247.714 1.4106e-05 251.915 4.10154 251.915 9.10945V63.7661C251.915 68.774 247.714 72.8755 242.584 72.8755Z" fill="black"/>
<path d="M242.584 1.4598C246.904 1.4598 250.419 4.89178 250.419 9.10945V63.7661C250.419 67.9837 246.904 71.4157 242.584 71.4157H9.33017C5.0103 71.4157 1.49516 67.9837 1.49516 63.7661V9.10945C1.49516 4.89178 5.0103 1.4598 9.33017 1.4598H242.584ZM242.584 1.4106e-05H9.33017C4.20091 1.4106e-05 0 4.10154 0 9.10945V63.7661C0 68.774 4.20091 72.8755 9.33017 72.8755H242.584C247.714 72.8755 251.915 68.774 251.915 63.7661V9.10945C251.915 4.10154 247.714 1.4106e-05 242.584 1.4106e-05Z" fill="#A6A6A6"/>
<path d="M88.4825 18.663C88.4825 20.1843 88.016 21.4027 87.097 22.3114C86.0404 23.3885 84.6642 23.9306 82.9777 23.9306C81.3659 23.9306 79.9897 23.3794 78.8608 22.2931C77.7295 21.1909 77.165 19.8381 77.165 18.2189C77.165 16.5997 77.7295 15.247 78.8608 14.1539C79.9897 13.0584 81.3659 12.5073 82.9777 12.5073C83.7801 12.5073 84.5452 12.669 85.2753 12.9696C86.003 13.2725 86.5955 13.6824 87.0247 14.188L86.0497 15.1491C85.3009 14.2859 84.2816 13.8601 82.9777 13.8601C81.8021 13.8601 80.7828 14.2609 79.9174 15.0694C79.0614 15.8801 78.6322 16.93 78.6322 18.2189C78.6322 19.5079 79.0614 20.5669 79.9174 21.3776C80.7828 22.177 81.8021 22.5869 82.9777 22.5869C84.2256 22.5869 85.2753 22.177 86.1033 21.3685C86.6492 20.8333 86.9594 20.0955 87.041 19.1527H82.9777V17.8363H88.3986C88.4639 18.121 88.4825 18.3966 88.4825 18.663V18.663Z" fill="white" stroke="white" stroke-width="0.197628" stroke-miterlimit="10"/>
<path d="M97.0833 14.0977H91.9913V17.5593H96.5818V18.8756H91.9913V22.3372H97.0833V23.6786H90.5498V12.7563H97.0833V14.0977Z" fill="white" stroke="white" stroke-width="0.197628" stroke-miterlimit="10"/>
<path d="M103.152 23.6786H101.71V14.0977H98.5869V12.7563H106.277V14.0977H103.152V23.6786V23.6786Z" fill="white" stroke="white" stroke-width="0.197628" stroke-miterlimit="10"/>
<path d="M111.843 23.679V12.7568H113.282V23.679H111.843Z" fill="white" stroke="white" stroke-width="0.197628" stroke-miterlimit="10"/>
<path d="M119.663 23.679H118.234V14.0982H115.099V12.7568H122.798V14.0982H119.663V23.679Z" fill="white" stroke="white" stroke-width="0.197628" stroke-miterlimit="10"/>
<path d="M137.358 22.2749C136.254 23.3794 134.888 23.9306 133.257 23.9306C131.617 23.9306 130.25 23.3794 129.147 22.2749C128.046 21.1727 127.498 19.8199 127.498 18.2189C127.498 16.618 128.046 15.2652 129.147 14.163C130.25 13.0584 131.617 12.5073 133.257 12.5073C134.878 12.5073 136.245 13.0584 137.348 14.1721C138.459 15.2834 139.007 16.6271 139.007 18.2189C139.007 19.8199 138.459 21.1727 137.358 22.2749ZM130.213 21.3594C131.044 22.177 132.053 22.5869 133.257 22.5869C134.451 22.5869 135.471 22.177 136.292 21.3594C137.12 20.5418 137.54 19.492 137.54 18.2189C137.54 16.9459 137.12 15.896 136.292 15.0785C135.471 14.2609 134.451 13.851 133.257 13.851C132.053 13.851 131.044 14.2609 130.213 15.0785C129.385 15.896 128.965 16.9459 128.965 18.2189C128.965 19.492 129.385 20.5418 130.213 21.3594V21.3594Z" fill="white" stroke="white" stroke-width="0.197628" stroke-miterlimit="10"/>
<path d="M141.026 23.679V12.7568H142.776L148.215 21.2514H148.278L148.215 19.1517V12.7568H149.654V23.679H148.152L142.456 14.7655H142.393L142.456 16.8743V23.679H141.026V23.679Z" fill="white" stroke="white" stroke-width="0.197628" stroke-miterlimit="10"/>
<path d="M127.142 39.6307C122.759 39.6307 119.179 42.8873 119.179 47.3805C119.179 51.8373 122.759 55.1281 127.142 55.1281C131.534 55.1281 135.115 51.8373 135.115 47.3805C135.115 42.8873 131.534 39.6307 127.142 39.6307ZM127.142 52.0765C124.737 52.0765 122.668 50.1384 122.668 47.3805C122.668 44.5862 124.737 42.6824 127.142 42.6824C129.547 42.6824 131.625 44.5862 131.625 47.3805C131.625 50.1384 129.547 52.0765 127.142 52.0765V52.0765ZM109.767 39.6307C105.375 39.6307 101.804 42.8873 101.804 47.3805C101.804 51.8373 105.375 55.1281 109.767 55.1281C114.157 55.1281 117.73 51.8373 117.73 47.3805C117.73 42.8873 114.157 39.6307 109.767 39.6307ZM109.767 52.0765C107.36 52.0765 105.284 50.1384 105.284 47.3805C105.284 44.5862 107.36 42.6824 109.767 42.6824C112.172 42.6824 114.241 44.5862 114.241 47.3805C114.241 50.1384 112.172 52.0765 109.767 52.0765ZM89.0914 42.006V45.299H97.1457C96.9101 47.1392 96.2803 48.4919 95.3147 49.4347C94.1391 50.5734 92.308 51.8373 89.0914 51.8373C84.1348 51.8373 80.2534 47.9317 80.2534 43.0923C80.2534 38.2529 84.1348 34.3472 89.0914 34.3472C91.7715 34.3472 93.7215 35.3698 95.1607 36.6952L97.5376 34.3746C95.5246 32.498 92.8468 31.0564 89.0914 31.0564C82.2944 31.0564 76.582 36.4561 76.582 43.0923C76.582 49.7285 82.2944 55.1281 89.0914 55.1281C92.7652 55.1281 95.5246 53.953 97.6939 51.7485C99.9168 49.5782 100.61 46.5265 100.61 44.0624C100.61 43.2972 100.544 42.5935 100.428 42.006H89.0914ZM173.637 44.5589C172.981 42.8258 170.959 39.6307 166.84 39.6307C162.758 39.6307 159.359 42.7712 159.359 47.3805C159.359 51.7212 162.723 55.1281 167.232 55.1281C170.877 55.1281 172.981 52.9578 173.847 51.6939L171.141 49.9335C170.238 51.2225 169.009 52.0765 167.232 52.0765C165.466 52.0765 164.199 51.2862 163.388 49.7285L174.003 45.4402L173.637 44.5589V44.5589ZM162.814 47.1391C162.723 44.1513 165.191 42.6209 166.959 42.6209C168.344 42.6209 169.52 43.2972 169.912 44.2651L162.814 47.1391V47.1391ZM154.186 54.6567H157.675V31.8831H154.186V54.6567ZM148.471 41.3569H148.354C147.571 40.4505 146.075 39.6307 144.181 39.6307C140.207 39.6307 136.573 43.0376 136.573 47.4056C136.573 51.7485 140.207 55.1281 144.181 55.1281C146.075 55.1281 147.571 54.3014 148.354 53.3677H148.471V54.4791C148.471 57.4419 146.85 59.0338 144.235 59.0338C142.103 59.0338 140.781 57.5307 140.235 56.2668L137.2 57.5034C138.075 59.5576 140.391 62.0854 144.235 62.0854C148.326 62.0854 151.778 59.7352 151.778 54.0168V40.1021H148.471V41.3569V41.3569ZM144.48 52.0765C142.075 52.0765 140.062 50.1111 140.062 47.4056C140.062 44.675 142.075 42.6824 144.48 42.6824C146.85 42.6824 148.718 44.675 148.718 47.4056C148.718 50.1111 146.85 52.0765 144.48 52.0765V52.0765ZM189.974 31.8831H181.628V54.6567H185.108V46.0278H189.974C193.839 46.0278 197.629 43.2972 197.629 38.9543C197.629 34.6137 193.83 31.8831 189.974 31.8831V31.8831ZM190.065 42.86H185.108V35.0509H190.065C192.663 35.0509 194.147 37.1575 194.147 38.9543C194.147 40.717 192.663 42.86 190.065 42.86ZM211.578 39.5874C209.063 39.5874 206.449 40.6715 205.373 43.0741L208.462 44.338C209.126 43.0741 210.349 42.6641 211.641 42.6641C213.446 42.6641 215.277 43.7231 215.305 45.5928V45.8319C214.675 45.4767 213.327 44.9506 211.669 44.9506C208.343 44.9506 204.953 46.7383 204.953 50.0747C204.953 53.1263 207.678 55.0917 210.74 55.0917C213.082 55.0917 214.375 54.06 215.186 52.8599H215.305V54.6203H218.666V45.8843C218.666 41.8466 215.578 39.5874 211.578 39.5874ZM211.158 52.0674C210.02 52.0674 208.434 51.5162 208.434 50.1384C208.434 48.3758 210.412 47.6994 212.124 47.6994C213.656 47.6994 214.375 48.0296 215.305 48.4646C215.032 50.5734 213.173 52.0674 211.158 52.0674V52.0674ZM230.912 40.0862L226.912 49.9585H226.793L222.657 40.0862H218.904L225.118 53.8824L221.573 61.5594H225.209L234.784 40.0862H230.912V40.0862ZM199.542 54.6567H203.031V31.8831H199.542V54.6567Z" fill="white"/>
<path d="M19.4738 13.7319C18.9256 14.2922 18.6084 15.1644 18.6084 16.294V56.585C18.6084 57.7146 18.9256 58.5868 19.4738 59.147L19.6091 59.27L42.7339 36.7014V36.1685L19.6091 13.5999L19.4738 13.7319Z" fill="url(#paint0_linear_15_1933)"/>
<path d="M50.4321 44.2324L42.7324 36.7058V36.1728L50.4415 28.6462L50.6141 28.7441L59.7436 33.8158C62.3491 35.2551 62.3491 37.6235 59.7436 39.0719L50.6141 44.1345L50.4321 44.2324V44.2324Z" fill="url(#paint1_linear_15_1933)"/>
<path d="M50.6134 44.1326L42.7318 36.4374L19.4717 59.1495C20.3371 60.0377 21.7482 60.1447 23.353 59.2566L50.6134 44.1326" fill="url(#paint2_linear_15_1933)"/>
<path d="M50.6134 28.7428L23.353 13.6189C21.7482 12.7398 20.3371 12.8468 19.4717 13.735L42.7318 36.438L50.6134 28.7428Z" fill="url(#paint3_linear_15_1933)"/>
<defs>
<linearGradient id="paint0_linear_15_1933" x1="40.6807" y1="57.0046" x2="10.1138" y2="25.6971" gradientUnits="userSpaceOnUse">
<stop stop-color="#00A0FF"/>
<stop offset="0.0066" stop-color="#00A1FF"/>
<stop offset="0.2601" stop-color="#00BEFF"/>
<stop offset="0.5122" stop-color="#00D2FF"/>
<stop offset="0.7604" stop-color="#00DFFF"/>
<stop offset="1" stop-color="#00E3FF"/>
</linearGradient>
<linearGradient id="paint1_linear_15_1933" x1="63.1364" y1="36.4367" x2="17.9842" y2="36.4367" gradientUnits="userSpaceOnUse">
<stop stop-color="#FFE000"/>
<stop offset="0.4087" stop-color="#FFBD00"/>
<stop offset="0.7754" stop-color="#FFA500"/>
<stop offset="1" stop-color="#FF9C00"/>
</linearGradient>
<linearGradient id="paint2_linear_15_1933" x1="46.3276" y1="32.2542" x2="4.87646" y2="-10.2014" gradientUnits="userSpaceOnUse">
<stop stop-color="#FF3A44"/>
<stop offset="1" stop-color="#C31162"/>
</linearGradient>
<linearGradient id="paint3_linear_15_1933" x1="13.6166" y1="72.5547" x2="32.1264" y2="53.5966" gradientUnits="userSpaceOnUse">
<stop stop-color="#32A071"/>
<stop offset="0.0685" stop-color="#2DA771"/>
<stop offset="0.4762" stop-color="#15CF74"/>
<stop offset="0.8009" stop-color="#06E775"/>
<stop offset="1" stop-color="#00F076"/>
</linearGradient>
</defs>
</svg>
