<svg width="63" height="64" viewBox="0 0 63 64" fill="none" xmlns="http://www.w3.org/2000/svg">
<circle cx="31.5" cy="32.4961" r="31.5" fill="black"/>
<g clip-path="url(#clip0_15_1975)">
<path d="M21.7057 27.6465H26.3676V42.6413H21.7057V27.6465ZM24.0368 20.1929C25.5268 20.1929 26.7377 21.4037 26.7377 22.8962C26.7377 24.3872 25.5268 25.5981 24.0368 25.5981C22.5433 25.5981 21.3359 24.3872 21.3359 22.8962C21.3359 21.4037 22.5433 20.1929 24.0368 20.1929Z" fill="white"/>
<path d="M29.291 27.6467H33.7612V29.6971H33.8249C34.4471 28.5178 35.9678 27.2754 38.2344 27.2754C42.9537 27.2754 43.8248 30.38 43.8248 34.4175V42.6415H39.1664V35.3495C39.1664 33.6101 39.1362 31.3735 36.7447 31.3735C34.3194 31.3735 33.9494 33.2693 33.9494 35.2246V42.6415H29.291V27.6467Z" fill="white"/>
</g>
<defs>
<clipPath id="clip0_15_1975">
<rect width="22.8389" height="22.8389" fill="white" transform="translate(21.1611 19.9961)"/>
</clipPath>
</defs>
</svg>
