<svg width="253" height="74" viewBox="0 0 253 74" fill="none" xmlns="http://www.w3.org/2000/svg">
<path d="M250.86 65.2391C250.86 69.1227 247.648 72.2685 243.676 72.2685H8.59422C4.62401 72.2685 1.40137 69.1227 1.40137 65.2391V9.18168C1.40137 5.29989 4.62401 2.14307 8.59422 2.14307H243.674C247.648 2.14307 250.858 5.29989 250.858 9.18168L250.86 65.2391Z" fill="black"/>
<path d="M242.918 2.22542C247.244 2.22542 250.764 5.6574 250.764 9.87507V64.5317C250.764 68.7493 247.244 72.1813 242.918 72.1813H9.34301C5.0172 72.1813 1.49722 68.7493 1.49722 64.5317V9.87507C1.49722 5.6574 5.0172 2.22542 9.34301 2.22542H242.918ZM242.918 0.765634H9.34301C4.20669 0.765634 0 4.86716 0 9.87507V64.5317C0 69.5396 4.20669 73.6411 9.34301 73.6411H242.918C248.055 73.6411 252.261 69.5396 252.261 64.5317V9.87507C252.261 4.86716 248.055 0.765634 242.918 0.765634Z" fill="#A6A6A6"/>
<path d="M56.2966 36.8098C56.2424 30.9379 61.2279 28.0812 61.4558 27.9482C58.6324 23.9345 54.2561 23.3862 52.7182 23.3424C49.0427 22.9653 45.4774 25.4868 43.6051 25.4868C41.6954 25.4868 38.8121 23.3789 35.7046 23.4408C31.7058 23.5009 27.9649 25.7583 25.9131 29.2636C21.6789 36.4108 24.8368 46.914 28.8936 52.6912C30.9229 55.5206 33.2941 58.6798 36.3979 58.5686C39.4343 58.4465 40.5686 56.6811 44.2329 56.6811C47.8636 56.6811 48.9287 58.5686 52.0941 58.4976C55.353 58.4465 57.4047 55.6554 59.363 52.8005C61.7081 49.5576 62.6499 46.3638 62.6872 46.1998C62.6106 46.1743 56.3583 43.8478 56.2966 36.8098Z" fill="white"/>
<path d="M50.3171 19.542C51.9502 17.5507 53.0677 14.8415 52.7575 12.0923C50.3937 12.1943 47.4376 13.6864 45.7353 15.634C44.2292 17.3503 42.8838 20.1632 43.2313 22.8086C45.8866 23.0017 48.6129 21.5023 50.3171 19.542Z" fill="white"/>
<path d="M100.243 58.1597H95.9992L93.6746 51.038H85.5948L83.3805 58.1597H79.249L87.2541 33.9141H92.1984L100.243 58.1597ZM92.9739 48.0501L90.8717 41.719C90.6494 41.0723 90.2327 39.5492 89.6179 37.1516H89.5431C89.2984 38.1827 88.9041 39.7058 88.3622 41.719L86.2974 48.0501H92.9739V48.0501Z" fill="white"/>
<path d="M120.829 49.2042C120.829 52.1775 120.005 54.5277 118.357 56.2531C116.881 57.7889 115.048 58.5559 112.86 58.5559C110.498 58.5559 108.801 57.7288 107.768 56.0745H107.693V65.2842H103.709V46.4331C103.709 44.5638 103.659 42.6454 103.562 40.6778H107.065L107.288 43.4489H107.362C108.691 41.361 110.707 40.3188 113.413 40.3188C115.528 40.3188 117.294 41.1332 118.707 42.7638C120.123 44.3962 120.829 46.5424 120.829 49.2042ZM116.771 49.3463C116.771 47.6447 116.378 46.2418 115.59 45.1377C114.728 43.9863 113.572 43.4106 112.122 43.4106C111.139 43.4106 110.246 43.7312 109.448 44.3634C108.648 45.0011 108.125 45.8337 107.88 46.8649C107.757 47.3459 107.695 47.7394 107.695 48.0491V50.9641C107.695 52.2358 108.095 53.3089 108.895 54.1852C109.694 55.0616 110.733 55.4988 112.011 55.4988C113.512 55.4988 114.68 54.934 115.515 53.8081C116.352 52.6803 116.771 51.1937 116.771 49.3463Z" fill="white"/>
<path d="M141.453 49.2042C141.453 52.1775 140.629 54.5277 138.979 56.2531C137.505 57.7889 135.672 58.5559 133.484 58.5559C131.122 58.5559 129.425 57.7288 128.394 56.0745H128.319V65.2842H124.335V46.4331C124.335 44.5638 124.285 42.6454 124.188 40.6778H127.691L127.913 43.4489H127.988C129.315 41.361 131.331 40.3188 134.039 40.3188C136.152 40.3188 137.918 41.1332 139.334 42.7638C140.745 44.3962 141.453 46.5424 141.453 49.2042ZM137.395 49.3463C137.395 47.6447 137.001 46.2418 136.212 45.1377C135.351 43.9863 134.198 43.4106 132.746 43.4106C131.761 43.4106 130.87 43.7312 130.07 44.3634C129.27 45.0011 128.749 45.8337 128.504 46.8649C128.383 47.3459 128.319 47.7394 128.319 48.0491V50.9641C128.319 52.2358 128.719 53.3089 129.515 54.1852C130.315 55.0597 131.354 55.4988 132.635 55.4988C134.136 55.4988 135.304 54.934 136.139 53.8081C136.976 52.6803 137.395 51.1937 137.395 49.3463Z" fill="white"/>
<path d="M164.513 51.3607C164.513 53.4231 163.779 55.1011 162.304 56.3964C160.684 57.812 158.429 58.5189 155.531 58.5189C152.855 58.5189 150.71 58.0161 149.086 57.0086L150.009 53.7711C151.758 54.8023 153.677 55.3197 155.768 55.3197C157.269 55.3197 158.436 54.9881 159.275 54.3286C160.111 53.6691 160.527 52.7836 160.527 51.6796C160.527 50.6958 160.184 49.8668 159.494 49.1945C158.808 48.5222 157.663 47.8973 156.063 47.3198C151.709 45.7366 149.534 43.4173 149.534 40.3675C149.534 38.3743 150.297 36.7401 151.823 35.4684C153.344 34.1949 155.374 33.5591 157.911 33.5591C160.174 33.5591 162.054 33.9435 163.555 34.7105L162.559 37.877C161.157 37.1336 159.573 36.762 157.799 36.762C156.398 36.762 155.303 37.099 154.518 37.7695C153.855 38.3689 153.522 39.0994 153.522 39.9648C153.522 40.9232 153.901 41.7157 154.664 42.3388C155.327 42.9145 156.532 43.5376 158.281 44.2098C160.421 45.0497 161.992 46.0317 163.003 47.1576C164.01 48.2799 164.513 49.6846 164.513 51.3607Z" fill="white"/>
<path d="M177.684 43.5929H173.293V52.0811C173.293 54.24 174.066 55.3186 175.617 55.3186C176.329 55.3186 176.92 55.2585 177.387 55.1382L177.497 58.0879C176.712 58.3739 175.679 58.5178 174.399 58.5178C172.825 58.5178 171.596 58.0496 170.708 57.115C169.824 56.1785 169.38 54.6081 169.38 52.4018V43.5893H166.764V40.6743H169.38V37.4732L173.293 36.3218V40.6743H177.684V43.5929Z" fill="white"/>
<path d="M197.496 49.2768C197.496 51.9641 196.707 54.1704 195.134 55.8958C193.484 57.6721 191.294 58.5575 188.564 58.5575C185.933 58.5575 183.838 57.7067 182.276 56.0051C180.714 54.3034 179.933 52.1554 179.933 49.5665C179.933 46.8574 180.736 44.6383 182.349 42.913C183.958 41.1858 186.129 40.3223 188.859 40.3223C191.49 40.3223 193.607 41.1731 195.205 42.8766C196.733 44.529 197.496 46.6624 197.496 49.2768ZM193.362 49.4025C193.362 47.7902 193.009 46.4074 192.293 45.2541C191.458 43.8585 190.264 43.1626 188.717 43.1626C187.116 43.1626 185.899 43.8604 185.064 45.2541C184.348 46.4092 183.995 47.8139 183.995 49.4754C183.995 51.0878 184.348 52.4706 185.064 53.622C185.925 55.0176 187.129 55.7136 188.681 55.7136C190.202 55.7136 191.396 55.003 192.258 53.5856C192.992 52.4105 193.362 51.0131 193.362 49.4025Z" fill="white"/>
<path d="M210.446 44.0938C210.052 44.0227 209.631 43.9863 209.19 43.9863C207.789 43.9863 206.705 44.5019 205.943 45.5349C205.279 46.4459 204.947 47.5973 204.947 48.9874V58.1606H200.965L201.002 46.1835C201.002 44.1685 200.952 42.3339 200.853 40.6796H204.323L204.468 44.0246H204.579C204.999 42.875 205.662 41.9494 206.57 41.2553C207.458 40.6304 208.417 40.3188 209.45 40.3188C209.818 40.3188 210.151 40.3444 210.446 40.3899V44.0938Z" fill="white"/>
<path d="M228.264 48.5897C228.264 49.2856 228.217 49.8723 228.118 50.3514H216.166C216.213 52.0786 216.79 53.3995 217.9 54.3104C218.907 55.1248 220.21 55.5329 221.809 55.5329C223.579 55.5329 225.193 55.2578 226.645 54.7057L227.269 57.4021C225.573 58.1236 223.57 58.4825 221.258 58.4825C218.478 58.4825 216.295 57.6845 214.707 56.0904C213.122 54.4962 212.328 52.3555 212.328 49.6701C212.328 47.0338 213.066 44.8384 214.544 43.0876C216.091 41.2183 218.182 40.2837 220.813 40.2837C223.398 40.2837 225.354 41.2183 226.683 43.0876C227.735 44.5724 228.264 46.4089 228.264 48.5897ZM224.465 47.5822C224.491 46.4307 224.231 45.436 223.691 44.5961C223.002 43.5157 221.942 42.9764 220.516 42.9764C219.214 42.9764 218.154 43.503 217.345 44.5597C216.682 45.3996 216.288 46.4071 216.166 47.5803H224.465V47.5822Z" fill="white"/>
<path d="M91.6552 19.0034C91.6552 21.1477 90.9955 22.7619 89.6782 23.8459C88.458 24.8461 86.7239 25.3472 84.4779 25.3472C83.3642 25.3472 82.4112 25.2998 81.6133 25.2051V13.4885C82.6541 13.3245 83.7753 13.2407 84.9861 13.2407C87.1257 13.2407 88.7383 13.6944 89.8258 14.6017C91.0441 15.6274 91.6552 17.094 91.6552 19.0034ZM89.5904 19.0562C89.5904 17.6661 89.2129 16.6003 88.458 15.857C87.7031 15.1154 86.6006 14.7438 85.1487 14.7438C84.532 14.7438 84.007 14.7839 83.5716 14.8677V23.7749C83.8126 23.8113 84.2536 23.8277 84.8946 23.8277C86.3932 23.8277 87.5498 23.4214 88.3646 22.6089C89.1793 21.7963 89.5904 20.6121 89.5904 19.0562Z" fill="white"/>
<path d="M102.604 20.8761C102.604 22.1969 102.217 23.2791 101.443 24.1281C100.633 25.0008 99.5581 25.4362 98.2164 25.4362C96.9234 25.4362 95.8938 25.019 95.1258 24.181C94.3596 23.3447 93.9766 22.2898 93.9766 21.0182C93.9766 19.6882 94.3708 18.5969 95.1631 17.7497C95.9554 16.9025 97.0205 16.478 98.3622 16.478C99.6552 16.478 100.694 16.8952 101.481 17.7315C102.228 18.544 102.604 19.5935 102.604 20.8761ZM100.573 20.938C100.573 20.1455 100.397 19.4659 100.048 18.8993C99.6366 18.2143 99.0517 17.8718 98.2912 17.8718C97.5045 17.8718 96.9065 18.2143 96.4954 18.8993C96.1441 19.4659 95.9704 20.1564 95.9704 20.9726C95.9704 21.7651 96.146 22.4447 96.4954 23.0113C96.9196 23.6963 97.5101 24.0389 98.2725 24.0389C99.0199 24.0389 99.6067 23.6909 100.029 22.9931C100.391 22.4156 100.573 21.7305 100.573 20.938Z" fill="white"/>
<path d="M117.284 16.6538L114.528 25.2422H112.734L111.592 21.5128C111.303 20.5818 111.067 19.6563 110.884 18.738H110.849C110.679 19.6818 110.443 20.6055 110.14 21.5128L108.928 25.2422H107.113L104.521 16.6538H106.534L107.53 20.7367C107.771 21.7023 107.969 22.6223 108.128 23.4932H108.163C108.309 22.7753 108.55 21.8608 108.89 20.7549L110.14 16.6556H111.736L112.934 20.6674C113.224 21.6458 113.459 22.5877 113.64 23.495H113.694C113.827 22.6114 114.027 21.6695 114.292 20.6674L115.361 16.6556H117.284V16.6538Z" fill="white"/>
<path d="M127.436 25.2399H125.478V20.3208C125.478 18.805 124.887 18.0471 123.702 18.0471C123.121 18.0471 122.652 18.2548 122.288 18.672C121.927 19.0892 121.744 19.5812 121.744 20.1441V25.2381H119.786V19.1056C119.786 18.3514 119.762 17.5334 119.715 16.6479H121.436L121.527 17.9906H121.582C121.81 17.5734 122.15 17.2291 122.596 16.954C123.127 16.6333 123.721 16.4712 124.371 16.4712C125.194 16.4712 125.877 16.7299 126.421 17.2491C127.098 17.885 127.436 18.8342 127.436 20.0949V25.2399V25.2399Z" fill="white"/>
<path d="M132.836 25.2405H130.88V12.7114H132.836V25.2405Z" fill="white"/>
<path d="M144.364 20.8761C144.364 22.1969 143.977 23.2791 143.203 24.1281C142.392 25.0008 141.316 25.4362 139.976 25.4362C138.681 25.4362 137.652 25.019 136.886 24.181C136.119 23.3447 135.736 22.2898 135.736 21.0182C135.736 19.6882 136.131 18.5969 136.923 17.7497C137.715 16.9025 138.78 16.478 140.12 16.478C141.415 16.478 142.452 16.8952 143.241 17.7315C143.988 18.544 144.364 19.5935 144.364 20.8761ZM142.331 20.938C142.331 20.1455 142.155 19.4659 141.806 18.8993C141.396 18.2143 140.81 17.8718 140.051 17.8718C139.262 17.8718 138.664 18.2143 138.255 18.8993C137.904 19.4659 137.73 20.1564 137.73 20.9726C137.73 21.7651 137.906 22.4447 138.255 23.0113C138.679 23.6963 139.27 24.0389 140.032 24.0389C140.78 24.0389 141.365 23.6909 141.787 22.9931C142.151 22.4156 142.331 21.7305 142.331 20.938Z" fill="white"/>
<path d="M153.843 25.2413H152.084L151.939 24.252H151.885C151.283 25.0409 150.425 25.4362 149.311 25.4362C148.48 25.4362 147.807 25.1757 147.301 24.6583C146.841 24.1883 146.611 23.6034 146.611 22.9093C146.611 21.8599 147.06 21.0601 147.962 20.5062C148.863 19.9524 150.13 19.6809 151.761 19.6937V19.5333C151.761 18.4019 151.152 17.8372 149.932 17.8372C149.063 17.8372 148.297 18.0503 147.635 18.473L147.237 17.2195C148.056 16.7258 149.067 16.478 150.259 16.478C152.561 16.478 153.716 17.6623 153.716 20.0307V23.1935C153.716 24.0516 153.759 24.7348 153.843 25.2413ZM151.81 22.2898V20.9653C149.65 20.9289 148.57 21.5064 148.57 22.6961C148.57 23.1443 148.693 23.4795 148.945 23.7036C149.197 23.9277 149.519 24.0389 149.902 24.0389C150.332 24.0389 150.733 23.9059 151.1 23.6417C151.468 23.3757 151.694 23.0386 151.778 22.6251C151.799 22.5322 151.81 22.4192 151.81 22.2898Z" fill="white"/>
<path d="M164.97 25.2405H163.232L163.141 23.8614H163.087C162.532 24.9108 161.586 25.4355 160.258 25.4355C159.196 25.4355 158.312 25.0292 157.612 24.2166C156.911 23.4041 156.562 22.3492 156.562 21.0538C156.562 19.6637 156.941 18.5378 157.703 17.6779C158.441 16.8763 159.346 16.4754 160.422 16.4754C161.605 16.4754 162.433 16.8635 162.904 17.6415H162.941V12.7114H164.901V22.9267C164.901 23.763 164.924 24.5336 164.97 25.2405ZM162.941 21.6186V20.1866C162.941 19.9389 162.922 19.7384 162.887 19.5854C162.776 19.1263 162.539 18.74 162.179 18.4285C161.814 18.117 161.375 17.9603 160.869 17.9603C160.138 17.9603 159.566 18.2427 159.146 18.8093C158.729 19.3759 158.518 20.0992 158.518 20.9828C158.518 21.8318 158.718 22.5205 159.12 23.0506C159.544 23.6154 160.116 23.8978 160.831 23.8978C161.474 23.8978 161.988 23.6628 162.378 23.1909C162.756 22.7555 162.941 22.2308 162.941 21.6186Z" fill="white"/>
<path d="M181.719 20.8761C181.719 22.1969 181.332 23.2791 180.559 24.1281C179.748 25.0008 178.675 25.4362 177.332 25.4362C176.04 25.4362 175.011 25.019 174.241 24.181C173.475 23.3447 173.092 22.2898 173.092 21.0182C173.092 19.6882 173.486 18.5969 174.278 17.7497C175.071 16.9025 176.136 16.478 177.479 16.478C178.77 16.478 179.811 16.8952 180.596 17.7315C181.344 18.544 181.719 19.5935 181.719 20.8761ZM179.69 20.938C179.69 20.1455 179.514 19.4659 179.165 18.8993C178.752 18.2143 178.169 17.8718 177.406 17.8718C176.622 17.8718 176.024 18.2143 175.611 18.8993C175.259 19.4659 175.086 20.1564 175.086 20.9726C175.086 21.7651 175.261 22.4447 175.611 23.0113C176.035 23.6963 176.625 24.0389 177.388 24.0389C178.135 24.0389 178.724 23.6909 179.146 22.9931C179.507 22.4156 179.69 21.7305 179.69 20.938Z" fill="white"/>
<path d="M192.248 25.2399H190.291V20.3208C190.291 18.805 189.701 18.0471 188.514 18.0471C187.933 18.0471 187.464 18.2548 187.101 18.672C186.739 19.0892 186.558 19.5812 186.558 20.1441V25.2381H184.597V19.1056C184.597 18.3514 184.575 17.5334 184.528 16.6479H186.247L186.339 17.9906H186.393C186.623 17.5734 186.963 17.2291 187.408 16.954C187.94 16.6333 188.533 16.4712 189.185 16.4712C190.005 16.4712 190.689 16.7299 191.233 17.2491C191.911 17.885 192.248 18.8342 192.248 20.0949V25.2399V25.2399Z" fill="white"/>
<path d="M205.427 18.0827H203.271V22.2549C203.271 23.3152 203.654 23.8454 204.413 23.8454C204.764 23.8454 205.055 23.8162 205.285 23.7561L205.336 25.2045C204.949 25.3466 204.441 25.4177 203.815 25.4177C203.041 25.4177 202.439 25.1881 202.004 24.729C201.567 24.2699 201.35 23.4974 201.35 22.4134V18.0827H200.062V16.6526H201.35V15.0785L203.269 14.5137V16.6507H205.425V18.0827H205.427Z" fill="white"/>
<path d="M215.795 25.2405H213.834V20.3579C213.834 18.8184 213.244 18.0477 212.061 18.0477C211.153 18.0477 210.533 18.4941 210.193 19.3868C210.135 19.5745 210.101 19.804 210.101 20.0737V25.2387H208.145V12.7114H210.101V17.8874H210.138C210.755 16.9455 211.639 16.4754 212.784 16.4754C213.595 16.4754 214.266 16.7342 214.799 17.2534C215.462 17.9002 215.795 18.8621 215.795 20.1338V25.2405V25.2405Z" fill="white"/>
<path d="M226.488 20.5397C226.488 20.8822 226.461 21.17 226.415 21.405H220.542C220.568 22.254 220.848 22.9008 221.392 23.349C221.889 23.7498 222.53 23.9502 223.315 23.9502C224.184 23.9502 224.976 23.8154 225.69 23.5439L225.996 24.8703C225.161 25.2237 224.178 25.4004 223.04 25.4004C221.676 25.4004 220.601 25.0087 219.824 24.2253C219.043 23.4419 218.656 22.3907 218.656 21.0716C218.656 19.7763 219.017 18.6977 219.744 17.8378C220.502 16.9196 221.528 16.4604 222.823 16.4604C224.09 16.4604 225.052 16.9196 225.703 17.8378C226.228 18.5665 226.488 19.4684 226.488 20.5397ZM224.619 20.0459C224.634 19.4793 224.505 18.9911 224.24 18.5793C223.9 18.0491 223.382 17.7831 222.681 17.7831C222.042 17.7831 221.521 18.0418 221.123 18.5611C220.798 18.9747 220.605 19.4684 220.542 20.0459H224.619Z" fill="white"/>
</svg>
