<svg width="100" height="100" viewBox="0 0 100 100" fill="none" xmlns="http://www.w3.org/2000/svg">
<g clip-path="url(#clip0_15_1378)">
<path d="M90 0H10C4.47715 0 0 4.47715 0 10V90C0 95.5229 4.47715 100 10 100H90C95.5229 100 100 95.5229 100 90V10C100 4.47715 95.5229 0 90 0Z" fill="black"/>
<path d="M49.5 66C61.9264 66 72 55.9264 72 43.5C72 31.0736 61.9264 21 49.5 21C37.0736 21 27 31.0736 27 43.5C27 55.9264 37.0736 66 49.5 66Z" fill="black"/>
<path d="M34 37H33C29.6863 37 27 39.6863 27 43V72C27 75.3137 29.6863 78 33 78H34C37.3137 78 40 75.3137 40 72V43C40 39.6863 37.3137 37 34 37Z" fill="black"/>
<path d="M49.5 67C61.9264 67 72 56.9264 72 44.5C72 32.0736 61.9264 22 49.5 22C37.0736 22 27 32.0736 27 44.5C27 56.9264 37.0736 67 49.5 67Z" fill="#0AF3F3"/>
<path d="M34 38H33C29.6863 38 27 40.6863 27 44V73C27 76.3137 29.6863 79 33 79H34C37.3137 79 40 76.3137 40 73V44C40 40.6863 37.3137 38 34 38Z" fill="#0AF3F3"/>
</g>
<defs>
<clipPath id="clip0_15_1378">
<rect width="100" height="100" fill="white"/>
</clipPath>
</defs>
</svg>
