<svg width="442" height="891" viewBox="0 0 442 891" fill="none" xmlns="http://www.w3.org/2000/svg">
<path d="M3.03995 100.965C3.03995 65.624 3.03995 47.9533 9.93171 34.4548C15.9939 22.5813 25.6671 12.9277 37.5646 6.87783C51.0905 0 68.7967 0 104.21 0L336.584 0C371.996 0 389.701 0 403.228 6.87783C415.125 12.9277 424.798 22.5813 430.861 34.4548C437.753 47.9533 437.753 65.624 437.753 100.965V228.749H439.576C440.248 228.749 440.793 229.291 440.793 229.962V333.111C440.793 333.781 440.248 334.325 439.576 334.325H437.753L437.753 789.153C437.753 824.494 437.753 842.164 430.861 855.662C424.798 867.536 415.125 877.19 403.228 883.24C389.701 890.118 371.996 890.118 336.584 890.118H104.21C68.7967 890.118 51.0905 890.118 37.5646 883.24C25.6671 877.19 15.9939 867.536 9.93171 855.662C3.03995 842.164 3.03995 824.494 3.03995 789.153L3.03995 355.562H1.21598C0.544413 355.562 0 355.018 0 354.347L0 288.819C0 288.148 0.544413 287.604 1.21598 287.604H3.03995L3.03995 272.436H1.21598C0.544413 272.436 0 271.892 0 271.222L0 205.692C0 205.021 0.544413 204.479 1.21598 204.479H3.03995L3.03995 175.96H1.21598C0.544413 175.96 0 175.418 0 174.748L0 141.982C0 141.312 0.544413 140.768 1.21598 140.768H3.03995L3.03995 100.965Z" fill="#ADAFA4"/>
<g style="mix-blend-mode:multiply">
<mask id="mask0_15_1752" style="mask-type:alpha" maskUnits="userSpaceOnUse" x="3" y="0" width="435" height="891">
<g style="mix-blend-mode:multiply">
<g style="mix-blend-mode:multiply">
<path d="M3.04004 100.966C3.04004 65.6252 3.04004 47.9545 9.9318 34.4561C15.994 22.5825 25.6671 12.929 37.5647 6.87905C51.0905 0.0012207 68.7968 0.0012207 104.21 0.0012207L336.584 0.0012207C371.996 0.0012207 389.702 0.0012207 403.228 6.87905C415.125 12.929 424.799 22.5825 430.861 34.4561C437.753 47.9545 437.753 65.6252 437.753 100.966L437.753 789.155C437.753 824.495 437.753 842.165 430.861 855.664C424.799 867.537 415.125 877.191 403.228 883.242C389.702 890.119 371.996 890.119 336.584 890.119L104.21 890.119C68.7968 890.119 51.0905 890.119 37.5647 883.242C25.6671 877.191 15.994 867.537 9.9318 855.664C3.04004 842.165 3.04004 824.495 3.04004 789.155L3.04004 100.966Z" fill="black"/>
</g>
</g>
</mask>
<g mask="url(#mask0_15_1752)">
<g style="mix-blend-mode:multiply">
<g style="mix-blend-mode:multiply" filter="url(#filter0_i_15_1752)">
<g style="mix-blend-mode:multiply">
<path d="M3.04004 100.965C3.04004 65.6237 3.04004 47.9531 9.9318 34.4546C15.994 22.5811 25.6671 12.9275 37.5647 6.87758C51.0905 -0.000244141 68.7968 -0.000244141 104.21 -0.000244141L336.584 -0.000244141C371.996 -0.000244141 389.702 -0.000244141 403.228 6.87758C415.125 12.9275 424.799 22.5811 430.861 34.4546C437.753 47.9531 437.753 65.6237 437.753 100.965L437.753 789.153C437.753 824.494 437.753 842.163 430.861 855.662C424.799 867.536 415.125 877.189 403.228 883.24C389.702 890.118 371.996 890.118 336.584 890.118L104.21 890.118C68.7968 890.118 51.0905 890.118 37.5647 883.24C25.6671 877.189 15.994 867.536 9.9318 855.662C3.04004 842.163 3.04004 824.494 3.04004 789.153L3.04004 100.965Z" fill="#EBEBEB"/>
</g>
</g>
<path style="mix-blend-mode:multiply" d="M10.9433 75.8452H0.607422L0.607422 84.3399H10.9433L10.9433 75.8452Z" fill="url(#paint0_linear_15_1752)"/>
<path style="mix-blend-mode:multiply" d="M10.9442 809.417H0.608398L0.608398 817.912H10.9442L10.9442 809.417Z" fill="url(#paint1_linear_15_1752)"/>
<path style="mix-blend-mode:multiply" d="M440.184 75.8442H429.849V84.3389H440.184V75.8442Z" fill="url(#paint2_linear_15_1752)"/>
<path style="mix-blend-mode:multiply" d="M440.184 809.419H429.849V817.914H440.184V809.419Z" fill="url(#paint3_linear_15_1752)"/>
<path style="mix-blend-mode:multiply" d="M345.338 6.06615V-4.24878L336.826 -4.24878V6.06615L345.338 6.06615Z" fill="url(#paint4_linear_15_1752)"/>
<path style="mix-blend-mode:multiply" d="M89.374 892.543V882.228H80.8622V892.543H89.374Z" fill="url(#paint5_linear_15_1752)"/>
</g>
<g style="mix-blend-mode:multiply">
<path d="M102.265 5.25098L338.53 5.25098C355.05 5.25098 367.418 5.25129 377.233 6.05153C387.042 6.8514 394.266 8.44848 400.508 11.6228C411.531 17.2276 420.493 26.1709 426.109 37.1709C429.289 43.401 430.891 50.6109 431.691 60.4008C432.494 70.1953 432.494 82.5372 432.494 99.025L432.494 791.096C432.494 807.583 432.494 819.926 431.691 829.721C430.891 839.511 429.289 846.72 426.109 852.949C420.493 863.95 411.531 872.894 400.508 878.499C394.266 881.672 387.042 883.27 377.233 884.07C367.418 884.87 355.05 884.87 338.53 884.87L102.265 884.87C85.7437 884.87 73.3766 884.87 63.5623 884.07C53.7526 883.27 46.528 881.672 40.2855 878.499C29.2631 872.894 20.3017 863.95 14.6855 852.949C11.5047 846.72 9.90443 839.511 9.10294 829.721C8.30108 819.926 8.30078 807.583 8.30078 791.096L8.30078 99.025C8.30078 82.5372 8.30108 70.1953 9.10294 60.4008C9.90443 50.6109 11.5047 43.401 14.6855 37.1709C20.3017 26.1709 29.2631 17.2276 40.2855 11.6228C46.528 8.44848 53.7526 6.8514 63.5623 6.05153C73.3766 5.25129 85.7437 5.25098 102.265 5.25098Z" fill="black"/>
<path d="M102.265 5.25098L338.53 5.25098C355.05 5.25098 367.418 5.25129 377.233 6.05153C387.042 6.8514 394.266 8.44848 400.508 11.6228C411.531 17.2276 420.493 26.1709 426.109 37.1709C429.289 43.401 430.891 50.6109 431.691 60.4008C432.494 70.1953 432.494 82.5372 432.494 99.025L432.494 791.096C432.494 807.583 432.494 819.926 431.691 829.721C430.891 839.511 429.289 846.72 426.109 852.949C420.493 863.95 411.531 872.894 400.508 878.499C394.266 881.672 387.042 883.27 377.233 884.07C367.418 884.87 355.05 884.87 338.53 884.87L102.265 884.87C85.7437 884.87 73.3766 884.87 63.5623 884.07C53.7526 883.27 46.528 881.672 40.2855 878.499C29.2631 872.894 20.3017 863.95 14.6855 852.949C11.5047 846.72 9.90443 839.511 9.10294 829.721C8.30108 819.926 8.30078 807.583 8.30078 791.096L8.30078 99.025C8.30078 82.5372 8.30108 70.1953 9.10294 60.4008C9.90443 50.6109 11.5047 43.401 14.6855 37.1709C20.3017 26.1709 29.2631 17.2276 40.2855 11.6228C46.528 8.44848 53.7526 6.8514 63.5623 6.05153C73.3766 5.25129 85.7437 5.25098 102.265 5.25098Z" stroke="url(#paint6_linear_15_1752)" stroke-width="0.726711" style="mix-blend-mode:multiply"/>
</g>
<g style="mix-blend-mode:multiply" filter="url(#filter1_ii_15_1752)">
<path style="mix-blend-mode:multiply" d="M0.000976563 141.984C0.000976563 141.314 0.545389 140.77 1.21696 140.77H3.04092L3.04092 175.962H1.21696C0.545389 175.962 0.000976563 175.42 0.000976563 174.75L0.000976563 141.984Z" fill="url(#paint7_linear_15_1752)"/>
</g>
<g style="mix-blend-mode:multiply" filter="url(#filter2_ii_15_1752)">
<path style="mix-blend-mode:multiply" d="M437.752 228.75H439.575C440.247 228.75 440.792 229.293 440.792 229.963V333.112C440.792 333.783 440.247 334.327 439.575 334.327H437.752V228.75Z" fill="url(#paint8_linear_15_1752)"/>
</g>
</g>
</g>
<g style="mix-blend-mode:screen">
<mask id="mask1_15_1752" style="mask-type:alpha" maskUnits="userSpaceOnUse" x="3" y="0" width="435" height="891">
<g style="mix-blend-mode:screen">
<g style="mix-blend-mode:screen">
<path d="M3.04004 100.966C3.04004 65.6252 3.04004 47.9545 9.9318 34.4561C15.994 22.5825 25.6671 12.929 37.5647 6.87905C51.0905 0.0012207 68.7968 0.0012207 104.21 0.0012207L336.584 0.0012207C371.996 0.0012207 389.702 0.0012207 403.228 6.87905C415.125 12.929 424.799 22.5825 430.861 34.4561C437.753 47.9545 437.753 65.6252 437.753 100.966L437.753 789.155C437.753 824.495 437.753 842.165 430.861 855.664C424.799 867.537 415.125 877.191 403.228 883.242C389.702 890.119 371.996 890.119 336.584 890.119L104.21 890.119C68.7968 890.119 51.0905 890.119 37.5647 883.242C25.6671 877.191 15.994 867.537 9.9318 855.664C3.04004 842.165 3.04004 824.495 3.04004 789.155L3.04004 100.966Z" fill="black"/>
</g>
</g>
</mask>
<g mask="url(#mask1_15_1752)">
<g style="mix-blend-mode:screen">
<g style="mix-blend-mode:screen" filter="url(#filter3_ii_15_1752)">
<g style="mix-blend-mode:screen">
<path d="M3.04004 100.965C3.04004 65.6237 3.04004 47.9531 9.9318 34.4546C15.994 22.5811 25.6671 12.9275 37.5647 6.87758C51.0905 -0.000244141 68.7968 -0.000244141 104.21 -0.000244141L336.584 -0.000244141C371.996 -0.000244141 389.702 -0.000244141 403.228 6.87758C415.125 12.9275 424.799 22.5811 430.861 34.4546C437.753 47.9531 437.753 65.6237 437.753 100.965L437.753 789.153C437.753 824.494 437.753 842.163 430.861 855.662C424.799 867.536 415.125 877.189 403.228 883.24C389.702 890.118 371.996 890.118 336.584 890.118L104.21 890.118C68.7968 890.118 51.0905 890.118 37.5647 883.24C25.6671 877.189 15.994 867.536 9.9318 855.662C3.04004 842.163 3.04004 824.494 3.04004 789.153L3.04004 100.965Z" fill="#050505"/>
</g>
</g>
<path style="mix-blend-mode:screen" d="M104.21 1.57983L336.585 1.57983C354.317 1.57983 367.52 1.58107 377.985 2.43432C388.432 3.28605 396.007 4.97891 402.509 8.28534C414.109 14.1837 423.54 23.5953 429.451 35.1714C432.763 41.6607 434.46 49.2217 435.314 59.6465C436.168 70.0898 436.169 83.2672 436.169 100.964L436.169 789.152C436.169 806.848 436.168 820.025 435.314 830.469C434.46 840.893 432.763 848.455 429.451 854.943C423.54 866.519 414.109 875.931 402.509 881.83C396.007 885.136 388.432 886.829 377.985 887.681C367.52 888.534 354.317 888.535 336.585 888.535L104.21 888.535C86.4779 888.535 73.2738 888.534 62.8093 887.681C52.3634 886.829 44.787 885.136 38.2847 881.83C26.6851 875.931 17.2544 866.519 11.3441 854.943C8.03098 848.455 6.33468 840.893 5.48121 830.469C4.62624 820.025 4.625 806.848 4.625 789.152L4.625 100.964C4.625 83.2672 4.62624 70.0898 5.48121 59.6465C6.33468 49.2217 8.03098 41.6607 11.3441 35.1714C17.2544 23.5953 26.6851 14.1837 38.2847 8.28534C44.787 4.97891 52.3634 3.28605 62.8093 2.43432C73.2738 1.58107 86.4779 1.57983 104.21 1.57983Z" stroke="url(#paint9_linear_15_1752)" stroke-width="2.90684"/>
<path style="mix-blend-mode:screen" d="M10.9433 75.8452H0.607422L0.607422 84.3399H10.9433L10.9433 75.8452Z" fill="url(#paint10_linear_15_1752)"/>
<path style="mix-blend-mode:screen" d="M10.9442 809.417H0.608398L0.608398 817.912H10.9442L10.9442 809.417Z" fill="url(#paint11_linear_15_1752)"/>
<path style="mix-blend-mode:screen" d="M440.184 75.8442H429.849V84.3389H440.184V75.8442Z" fill="url(#paint12_linear_15_1752)"/>
<path style="mix-blend-mode:screen" d="M440.184 809.419H429.849V817.914H440.184V809.419Z" fill="url(#paint13_linear_15_1752)"/>
<path style="mix-blend-mode:screen" d="M345.338 6.06615V-4.24878L336.826 -4.24878V6.06615L345.338 6.06615Z" fill="url(#paint14_linear_15_1752)"/>
<path style="mix-blend-mode:screen" d="M89.374 892.543V882.228H80.8622V892.543H89.374Z" fill="url(#paint15_linear_15_1752)"/>
</g>
<g style="mix-blend-mode:screen">
<path d="M102.265 5.25098L338.53 5.25098C355.05 5.25098 367.418 5.25129 377.233 6.05153C387.042 6.8514 394.266 8.44848 400.508 11.6228C411.531 17.2276 420.493 26.1709 426.109 37.1709C429.289 43.401 430.891 50.6109 431.691 60.4008C432.494 70.1953 432.494 82.5372 432.494 99.025L432.494 791.096C432.494 807.583 432.494 819.926 431.691 829.721C430.891 839.511 429.289 846.72 426.109 852.949C420.493 863.95 411.531 872.894 400.508 878.499C394.266 881.672 387.042 883.27 377.233 884.07C367.418 884.87 355.05 884.87 338.53 884.87L102.265 884.87C85.7437 884.87 73.3766 884.87 63.5623 884.07C53.7526 883.27 46.528 881.672 40.2855 878.499C29.2631 872.894 20.3017 863.95 14.6855 852.949C11.5047 846.72 9.90443 839.511 9.10294 829.721C8.30108 819.926 8.30078 807.583 8.30078 791.096L8.30078 99.025C8.30078 82.5372 8.30108 70.1953 9.10294 60.4008C9.90443 50.6109 11.5047 43.401 14.6855 37.1709C20.3017 26.1709 29.2631 17.2276 40.2855 11.6228C46.528 8.44848 53.7526 6.8514 63.5623 6.05153C73.3766 5.25129 85.7437 5.25098 102.265 5.25098Z" fill="black"/>
<path d="M102.265 5.25098L338.53 5.25098C355.05 5.25098 367.418 5.25129 377.233 6.05153C387.042 6.8514 394.266 8.44848 400.508 11.6228C411.531 17.2276 420.493 26.1709 426.109 37.1709C429.289 43.401 430.891 50.6109 431.691 60.4008C432.494 70.1953 432.494 82.5372 432.494 99.025L432.494 791.096C432.494 807.583 432.494 819.926 431.691 829.721C430.891 839.511 429.289 846.72 426.109 852.949C420.493 863.95 411.531 872.894 400.508 878.499C394.266 881.672 387.042 883.27 377.233 884.07C367.418 884.87 355.05 884.87 338.53 884.87L102.265 884.87C85.7437 884.87 73.3766 884.87 63.5623 884.07C53.7526 883.27 46.528 881.672 40.2855 878.499C29.2631 872.894 20.3017 863.95 14.6855 852.949C11.5047 846.72 9.90443 839.511 9.10294 829.721C8.30108 819.926 8.30078 807.583 8.30078 791.096L8.30078 99.025C8.30078 82.5372 8.30108 70.1953 9.10294 60.4008C9.90443 50.6109 11.5047 43.401 14.6855 37.1709C20.3017 26.1709 29.2631 17.2276 40.2855 11.6228C46.528 8.44848 53.7526 6.8514 63.5623 6.05153C73.3766 5.25129 85.7437 5.25098 102.265 5.25098Z" stroke="url(#paint16_linear_15_1752)" stroke-width="0.726711" style="mix-blend-mode:screen"/>
</g>
<g style="mix-blend-mode:screen">
<path d="M28.8265 44.3734C24.3203 53.1993 24.3203 64.7532 24.3203 87.8608L24.3203 802.261C24.3203 825.369 24.3203 836.923 28.8265 845.748C32.7901 853.511 39.1148 859.824 46.8942 863.78C55.738 868.276 67.3152 868.276 90.4695 868.276L350.324 868.276C373.48 868.276 385.055 868.276 393.9 863.78C401.679 859.824 408.003 853.511 411.967 845.748C416.474 836.923 416.474 825.369 416.474 802.261L416.474 87.8608C416.474 64.7532 416.474 53.1993 411.967 44.3734C408.003 36.6099 401.679 30.298 393.9 26.3423C385.055 21.8452 373.48 21.8452 350.324 21.8452L330.004 21.8452C328.998 21.8452 328.494 21.8452 328.091 21.9916C327.416 22.237 326.884 22.7681 326.639 23.4422C326.491 23.8443 326.491 24.3466 326.491 25.351C326.491 33.3864 326.491 37.4041 325.317 40.6212C323.351 46.0144 319.095 50.2629 313.689 52.2259C310.467 53.3968 306.44 53.3968 298.389 53.3968L142.405 53.3968C134.354 53.3968 130.328 53.3968 127.104 52.2259C121.7 50.2629 117.443 46.0144 115.476 40.6212C114.303 37.4041 114.303 33.3864 114.303 25.351C114.303 24.3466 114.303 23.8443 114.156 23.4422C113.91 22.7681 113.378 22.237 112.703 21.9916C112.3 21.8452 111.796 21.8452 110.79 21.8452L90.4695 21.8452C67.3152 21.8452 55.738 21.8452 46.8942 26.3423C39.1148 30.298 32.7901 36.6099 28.8265 44.3734Z" fill="black"/>
</g>
<g style="mix-blend-mode:screen" filter="url(#filter4_iiii_15_1752)">
<path style="mix-blend-mode:screen" d="M0.000976563 141.984C0.000976563 141.314 0.545389 140.77 1.21696 140.77H3.04092L3.04092 175.962H1.21696C0.545389 175.962 0.000976563 175.42 0.000976563 174.75L0.000976563 141.984Z" fill="url(#paint17_linear_15_1752)"/>
</g>
<g style="mix-blend-mode:screen" filter="url(#filter5_iiii_15_1752)">
<path style="mix-blend-mode:screen" d="M437.752 228.75H439.575C440.247 228.75 440.792 229.293 440.792 229.963V333.112C440.792 333.783 440.247 334.327 439.575 334.327H437.752V228.75Z" fill="url(#paint18_linear_15_1752)"/>
</g>
</g>
</g>
<mask id="mask2_15_1752" style="mask-type:alpha" maskUnits="userSpaceOnUse" x="24" y="21" width="393" height="848">
<path d="M28.8245 44.372C24.3184 53.1979 24.3184 64.7517 24.3184 87.8593L24.3184 802.259C24.3184 825.367 24.3184 836.921 28.8245 845.747C32.7881 853.51 39.1128 859.823 46.8922 863.778C55.736 868.275 67.3132 868.275 90.4675 868.275H350.323C373.478 868.275 385.054 868.275 393.898 863.778C401.677 859.823 408.001 853.51 411.965 845.747C416.472 836.921 416.472 825.367 416.472 802.259L416.472 87.8593C416.472 64.7517 416.472 53.1979 411.965 44.372C408.001 36.6085 401.677 30.2965 393.898 26.3408C385.054 21.8437 373.478 21.8438 350.323 21.8438H330.002C328.996 21.8438 328.492 21.8437 328.089 21.9902C327.415 22.2355 326.882 22.7666 326.637 23.4407C326.489 23.8428 326.489 24.3451 326.489 25.3495C326.489 33.3849 326.489 37.4026 325.315 40.6197C323.349 46.0129 319.093 50.2614 313.687 52.2244C310.465 53.3953 306.438 53.3953 298.387 53.3953L142.404 53.3953C134.352 53.3953 130.326 53.3953 127.102 52.2244C121.698 50.2614 117.441 46.0129 115.474 40.6197C114.301 37.4026 114.301 33.3849 114.301 25.3495C114.301 24.3451 114.301 23.8428 114.154 23.4407C113.908 22.7666 113.376 22.2355 112.701 21.9902C112.298 21.8437 111.794 21.8438 110.788 21.8438L90.4675 21.8438C67.3132 21.8438 55.736 21.8437 46.8922 26.3408C39.1128 30.2965 32.7881 36.6085 28.8245 44.372Z" fill="#161616"/>
</mask>
<g mask="url(#mask2_15_1752)">
<path d="M140.016 318.472H64.6069C62.857 318.472 61.4385 319.888 61.4385 321.634V325.508C61.4385 327.254 62.857 328.67 64.6069 328.67H140.016C141.766 328.67 143.185 327.254 143.185 325.508V321.634C143.185 319.888 141.766 318.472 140.016 318.472Z" fill="#B3BAC5"/>
<path opacity="0.1" d="M191.11 347.366H64.6089C62.859 347.366 61.4404 348.782 61.4404 350.528V354.402C61.4404 356.148 62.859 357.564 64.6089 357.564H191.11C192.86 357.564 194.278 356.148 194.278 354.402V350.528C194.278 348.782 192.86 347.366 191.11 347.366Z" fill="#5A7184"/>
<path d="M62.291 462.939C62.291 462.939 84.4306 447.643 95.5004 447.643C106.57 447.643 112.531 461.239 127.858 462.09C143.186 462.939 167.028 434.046 187.465 434.046C207.901 434.046 218.12 449.342 248.775 448.493C279.429 447.643 280.282 417.05 302.421 417.05C321.678 417.05 320.963 393.262 337.262 387.067" stroke="#005490" stroke-width="5.81369" stroke-linecap="round"/>
<path d="M377.047 703.524L63.3691 703.524C56.3696 703.524 50.6953 709.187 50.6953 716.172L50.6953 898.022C50.6953 905.007 56.3696 910.67 63.3691 910.67H377.047C384.046 910.67 389.72 905.007 389.72 898.022V716.172C389.72 709.187 384.046 703.524 377.047 703.524Z" fill="white"/>
<path d="M255.094 743.574H153.497C151.747 743.574 150.328 744.99 150.328 746.737V748.698C150.328 750.445 151.747 751.86 153.497 751.86H255.094C256.844 751.86 258.263 750.445 258.263 748.698V746.737C258.263 744.99 256.844 743.574 255.094 743.574Z" fill="#D5D9E0"/>
<path d="M213.581 768.431H153.497C151.747 768.431 150.328 769.847 150.328 771.593V773.555C150.328 775.302 151.747 776.717 153.497 776.717H213.581C215.331 776.717 216.749 775.302 216.749 773.555V771.593C216.749 769.847 215.331 768.431 213.581 768.431Z" fill="#D5D9E0"/>
<path opacity="0.1" d="M353.342 756H320.933C319.183 756 317.765 757.415 317.765 759.162V761.123C317.765 762.87 319.183 764.286 320.933 764.286H353.342C355.092 764.286 356.51 762.87 356.51 761.123V759.162C356.51 757.415 355.092 756 353.342 756Z" fill="#5A7184"/>
<path fill-rule="evenodd" clip-rule="evenodd" d="M107.431 783.621C120.423 783.621 130.956 773.11 130.956 760.144C130.956 747.178 120.423 736.667 107.431 736.667C94.4393 736.667 83.9072 747.178 83.9072 760.144C83.9072 773.11 94.4393 783.621 107.431 783.621Z" fill="#005490"/>
<path d="M255.093 823.668H153.496C151.746 823.668 150.327 825.084 150.327 826.831V828.792C150.327 830.539 151.746 831.954 153.496 831.954H255.093C256.843 831.954 258.262 830.539 258.262 828.792V826.831C258.262 825.084 256.843 823.668 255.093 823.668Z" fill="#D5D9E0"/>
<path d="M213.58 848.528H153.496C151.746 848.528 150.327 849.944 150.327 851.69V853.652C150.327 855.398 151.746 856.814 153.496 856.814H213.58C215.33 856.814 216.748 855.398 216.748 853.652V851.69C216.748 849.944 215.33 848.528 213.58 848.528Z" fill="#D5D9E0"/>
<path opacity="0.1" d="M353.344 836.098H320.935C319.185 836.098 317.767 837.514 317.767 839.26V841.222C317.767 842.968 319.185 844.384 320.935 844.384H353.344C355.094 844.384 356.512 842.968 356.512 841.222V839.26C356.512 837.514 355.094 836.098 353.344 836.098Z" fill="#5A7184"/>
<path fill-rule="evenodd" clip-rule="evenodd" d="M107.431 863.717C120.423 863.717 130.956 853.207 130.956 840.241C130.956 827.275 120.423 816.764 107.431 816.764C94.4393 816.764 83.9072 827.275 83.9072 840.241C83.9072 853.207 94.4393 863.717 107.431 863.717Z" fill="#005490"/>
<g filter="url(#filter6_i_15_1752)">
<path d="M196.989 33.3728C196.989 31.027 198.893 29.1255 201.244 29.1255L240.156 29.1255C242.506 29.1255 244.412 31.027 244.412 33.3728C244.412 35.7185 242.506 37.6202 240.156 37.6202L201.244 37.6202C198.893 37.6202 196.989 35.7185 196.989 33.3728Z" fill="#161616"/>
</g>
<g filter="url(#filter7_f_15_1752)">
<path d="M201.244 30.7053L240.156 30.7053C241.631 30.7053 242.827 31.899 242.827 33.3716C242.827 34.8441 241.631 36.038 240.156 36.038L201.244 36.038C199.769 36.038 198.573 34.8441 198.573 33.3716C198.573 31.899 199.769 30.7053 201.244 30.7053Z" stroke="black" stroke-opacity="0.32" stroke-width="2.90684"/>
</g>
<path d="M201.243 29.9153L240.155 29.9153C242.067 29.9153 243.618 31.4629 243.618 33.372C243.618 35.2813 242.067 36.829 240.155 36.829L201.243 36.829C199.33 36.829 197.78 35.2813 197.78 33.372C197.78 31.4629 199.33 29.9153 201.243 29.9153Z" stroke="url(#paint19_linear_15_1752)" stroke-width="1.45342"/>
<path d="M254.139 33.373C254.139 28.6816 257.95 24.8784 262.651 24.8784C267.353 24.8784 271.163 28.6816 271.163 33.373C271.163 38.0645 267.353 41.8676 262.651 41.8676C257.95 41.8676 254.139 38.0645 254.139 33.373Z" fill="url(#paint20_radial_15_1752)"/>
<path d="M254.139 33.373C254.139 28.6816 257.95 24.8784 262.651 24.8784C267.353 24.8784 271.163 28.6816 271.163 33.373C271.163 38.0645 267.353 41.8676 262.651 41.8676C257.95 41.8676 254.139 38.0645 254.139 33.373Z" fill="url(#paint21_radial_15_1752)"/>
<path d="M266.908 33.3718C266.908 31.026 265.002 29.1245 262.651 29.1245C260.301 29.1245 258.396 31.026 258.396 33.3718C258.396 35.7175 260.301 37.6192 262.651 37.6192C265.002 37.6192 266.908 35.7175 266.908 33.3718Z" fill="url(#paint22_linear_15_1752)"/>
<path d="M266.908 33.3718C266.908 31.026 265.002 29.1245 262.651 29.1245C260.301 29.1245 258.396 31.026 258.396 33.3718C258.396 35.7175 260.301 37.6192 262.651 37.6192C265.002 37.6192 266.908 35.7175 266.908 33.3718Z" fill="url(#paint23_radial_15_1752)"/>
<path d="M266.908 33.3718C266.908 31.026 265.002 29.1245 262.651 29.1245C260.301 29.1245 258.396 31.026 258.396 33.3718C258.396 35.7175 260.301 37.6192 262.651 37.6192C265.002 37.6192 266.908 35.7175 266.908 33.3718Z" fill="url(#paint24_radial_15_1752)"/>
<path d="M266.908 33.3718C266.908 31.026 265.002 29.1245 262.651 29.1245C260.301 29.1245 258.396 31.026 258.396 33.3718C258.396 35.7175 260.301 37.6192 262.651 37.6192C265.002 37.6192 266.908 35.7175 266.908 33.3718Z" fill="url(#paint25_radial_15_1752)"/>
<path d="M266.908 33.3718C266.908 31.026 265.002 29.1245 262.651 29.1245C260.301 29.1245 258.396 31.026 258.396 33.3718C258.396 35.7175 260.301 37.6192 262.651 37.6192C265.002 37.6192 266.908 35.7175 266.908 33.3718Z" fill="url(#paint26_radial_15_1752)"/>
<g clip-path="url(#clip0_15_1752)">
<rect width="390.772" height="884.748" transform="translate(25.2373 20.2388)" fill="#00E8FA"/>
<path d="M70.8865 589.921H61.8452L61.8452 553.785H48.8703V545.888H83.8907V553.785H70.8865V589.921ZM92.3449 553.55C91.2294 553.55 90.29 553.159 89.5268 552.376C88.7636 551.593 88.382 550.644 88.382 549.528C88.382 548.413 88.7636 547.473 89.5268 546.71C90.29 545.927 91.2294 545.536 92.3449 545.536C93.4799 545.536 94.4291 545.927 95.1923 546.71C95.9751 547.473 96.3665 548.413 96.3665 549.528C96.3665 550.644 95.9751 551.593 95.1923 552.376C94.4291 553.159 93.4799 553.55 92.3449 553.55ZM96.572 589.921H88.1471V560.566H96.572V589.921ZM151.583 589.921H143.158V575.185C143.158 572.738 142.679 570.85 141.72 569.519C140.761 568.188 139.401 567.523 137.639 567.523C135.839 567.523 134.43 568.198 133.412 569.548C132.414 570.899 131.915 572.777 131.915 575.185V589.921H123.49V575.185C123.49 572.738 123.011 570.85 122.052 569.519C121.093 568.188 119.723 567.523 117.942 567.523C116.161 567.523 114.762 568.198 113.745 569.548C112.747 570.899 112.247 572.777 112.247 575.185V589.921H103.823V560.566H110.545L110.838 565.409C111.817 563.628 113.128 562.278 114.772 561.358C116.435 560.439 118.363 559.979 120.555 559.979C122.845 559.979 124.821 560.458 126.485 561.417C128.148 562.376 129.43 563.756 130.33 565.556C131.328 563.736 132.649 562.356 134.293 561.417C135.956 560.458 137.923 559.979 140.193 559.979C143.775 559.979 146.563 561.124 148.559 563.413C150.575 565.683 151.583 568.863 151.583 572.954V589.921ZM185.224 586.633C181.584 589.216 177.601 590.508 173.276 590.508C170.067 590.508 167.18 589.823 164.617 588.453C162.073 587.063 160.057 585.185 158.57 582.817C157.102 580.449 156.368 577.778 156.368 574.803C156.368 571.965 157.033 569.431 158.364 567.2C159.714 564.969 161.544 563.208 163.853 561.916C166.163 560.624 168.785 559.979 171.72 559.979C174.754 559.979 177.425 560.693 179.734 562.122C182.044 563.531 183.844 565.507 185.136 568.051C186.427 570.576 187.073 573.501 187.073 576.828V577.768H165.439C165.791 578.922 166.368 579.94 167.17 580.821C167.973 581.682 168.971 582.367 170.165 582.875C171.358 583.384 172.728 583.639 174.274 583.639C177.269 583.639 180.057 582.67 182.641 580.733L185.224 586.633ZM165.057 573.482H179.294C179.137 572.21 178.736 571.094 178.091 570.135C177.464 569.157 176.633 568.394 175.595 567.846C174.578 567.298 173.433 567.024 172.161 567.024C170.869 567.024 169.715 567.308 168.697 567.875C167.699 568.443 166.887 569.206 166.26 570.165C165.634 571.124 165.233 572.229 165.057 573.482ZM206.036 589.921V545.888H222.328C227.064 545.888 230.734 546.896 233.336 548.912C235.959 550.908 237.27 553.716 237.27 557.337C237.27 559.548 236.751 561.505 235.714 563.208C234.677 564.891 233.278 566.173 231.516 567.053C234.021 567.797 235.969 569.079 237.358 570.899C238.767 572.699 239.472 574.911 239.472 577.533C239.472 580.038 238.855 582.22 237.622 584.079C236.409 585.919 234.687 587.357 232.456 588.394C230.244 589.412 227.642 589.921 224.647 589.921H206.036ZM215.078 564.323H221.829C223.845 564.323 225.44 563.844 226.614 562.885C227.788 561.926 228.375 560.624 228.375 558.981C228.375 557.376 227.779 556.114 226.585 555.194C225.411 554.254 223.776 553.785 221.682 553.785H215.078V564.323ZM215.078 582.024H222.387C223.992 582.024 225.381 581.799 226.555 581.349C227.73 580.879 228.63 580.224 229.256 579.382C229.902 578.521 230.225 577.523 230.225 576.388C230.225 575.253 229.931 574.284 229.344 573.482C228.777 572.68 227.945 572.073 226.849 571.662C225.753 571.231 224.452 571.016 222.945 571.016H215.078V582.024ZM271.997 586.633C268.357 589.216 264.374 590.508 260.049 590.508C256.84 590.508 253.953 589.823 251.39 588.453C248.846 587.063 246.83 585.185 245.343 582.817C243.875 580.449 243.141 577.778 243.141 574.803C243.141 571.965 243.806 569.431 245.137 567.2C246.487 564.969 248.317 563.208 250.626 561.916C252.936 560.624 255.558 559.979 258.494 559.979C261.527 559.979 264.198 560.693 266.507 562.122C268.817 563.531 270.617 565.507 271.909 568.051C273.2 570.576 273.846 573.501 273.846 576.828V577.768H252.212C252.564 578.922 253.141 579.94 253.944 580.821C254.746 581.682 255.744 582.367 256.938 582.875C258.131 583.384 259.501 583.639 261.047 583.639C264.042 583.639 266.83 582.67 269.414 580.733L271.997 586.633ZM251.83 573.482H266.067C265.911 572.21 265.509 571.094 264.864 570.135C264.237 569.157 263.406 568.394 262.368 567.846C261.351 567.298 260.206 567.024 258.934 567.024C257.642 567.024 256.488 567.308 255.47 567.875C254.472 568.443 253.66 569.206 253.034 570.165C252.407 571.124 252.006 572.229 251.83 573.482ZM298.827 589.157C296.577 590.058 294.395 590.508 292.281 590.508C290.089 590.508 288.152 590.048 286.469 589.128C284.805 588.189 283.504 586.887 282.565 585.224C281.625 583.541 281.155 581.603 281.155 579.412V568.081H276.018V560.566H281.596V553.227H289.58V560.566L297.712 560.566V568.081H289.58V577.885C289.58 579.49 290.021 580.742 290.901 581.643C291.782 582.523 292.878 582.964 294.189 582.964C295.383 582.964 296.547 582.592 297.682 581.848L298.827 589.157ZM324.248 589.157C321.998 590.058 319.816 590.508 317.702 590.508C315.511 590.508 313.573 590.048 311.89 589.128C310.227 588.189 308.925 586.887 307.986 585.224C307.047 583.541 306.577 581.603 306.577 579.412V568.081L301.44 568.081V560.566H307.017V553.227H315.002V560.566H323.133V568.081H315.002V577.885C315.002 579.49 315.442 580.742 316.323 581.643C317.203 582.523 318.299 582.964 319.61 582.964C320.804 582.964 321.969 582.592 323.104 581.848L324.248 589.157ZM356.187 586.633C352.547 589.216 348.564 590.508 344.239 590.508C341.03 590.508 338.143 589.823 335.579 588.453C333.035 587.063 331.02 585.185 329.532 582.817C328.065 580.449 327.331 577.778 327.331 574.803C327.331 571.965 327.996 569.431 329.327 567.2C330.677 564.969 332.507 563.208 334.816 561.916C337.125 560.624 339.748 559.979 342.683 559.979C345.717 559.979 348.388 560.693 350.697 562.122C353.006 563.531 354.807 565.507 356.099 568.051C357.39 570.576 358.036 573.501 358.036 576.828V577.768H336.401C336.754 578.922 337.331 579.94 338.133 580.821C338.936 581.682 339.934 582.367 341.128 582.875C342.321 583.384 343.691 583.639 345.237 583.639C348.231 583.639 351.02 582.67 353.603 580.733L356.187 586.633ZM336.02 573.482H350.257C350.1 572.21 349.699 571.094 349.053 570.135C348.427 569.157 347.595 568.394 346.558 567.846C345.541 567.298 344.396 567.024 343.124 567.024C341.832 567.024 340.677 567.308 339.66 567.875C338.662 568.443 337.85 569.206 337.223 570.165C336.597 571.124 336.196 572.229 336.02 573.482ZM371.803 589.921H363.379V560.566H370.717L371.011 565.644C371.989 563.863 373.32 562.474 375.003 561.476C376.686 560.478 378.614 559.979 380.786 559.979C381.412 559.979 382.038 560.028 382.665 560.125C383.311 560.204 383.966 560.331 384.631 560.507L383.575 568.081C382.283 567.709 381.06 567.523 379.905 567.523C378.281 567.523 376.852 567.895 375.62 568.638C374.406 569.362 373.467 570.38 372.801 571.691C372.136 572.983 371.803 574.5 371.803 576.241V589.921ZM49.8097 654.165L54.0955 647.267C55.4458 648.363 56.7472 649.263 57.9997 649.967C59.2717 650.652 60.5242 651.161 61.7571 651.494C62.99 651.807 64.2523 651.964 65.5439 651.964C67.0703 651.964 68.3913 651.748 69.5068 651.318C70.6223 650.887 71.4833 650.271 72.09 649.468C72.7163 648.666 73.0294 647.736 73.0294 646.68C73.0294 645.447 72.638 644.41 71.8552 643.568C71.0724 642.727 70.045 641.993 68.7729 641.366C67.5204 640.721 66.1603 640.104 64.6926 639.517C63.264 638.93 61.8256 638.294 60.3774 637.609C58.9488 636.904 57.6278 636.073 56.4145 635.114C55.2207 634.155 54.252 632.991 53.5084 631.621C52.7843 630.231 52.4222 628.548 52.4222 626.572C52.4222 623.988 53.068 621.757 54.3597 619.879C55.6708 618 57.4615 616.552 59.7316 615.534C62.0017 614.516 64.5947 614.008 67.5107 614.008C69.5655 614.008 71.6986 614.282 73.91 614.83C76.141 615.378 78.3622 616.209 80.5736 617.325L77.0216 624.634C75.6322 623.793 74.1351 623.127 72.5303 622.638C70.9256 622.149 69.4187 621.904 68.0097 621.904C66.7376 621.904 65.6222 622.1 64.6632 622.491C63.7239 622.883 62.99 623.431 62.4616 624.135C61.9332 624.82 61.669 625.632 61.669 626.572C61.669 627.687 62.0506 628.656 62.8139 629.478C63.5771 630.28 64.5654 630.994 65.7787 631.621C67.0116 632.247 68.3326 632.873 69.7416 633.499C71.1898 634.126 72.6478 634.811 74.1155 635.554C75.6028 636.298 76.9531 637.178 78.1665 638.196C79.3994 639.194 80.3877 640.398 81.1313 641.807C81.8945 643.196 82.2762 644.869 82.2762 646.826C82.2762 649.41 81.5912 651.68 80.2213 653.637C78.8514 655.574 76.9434 657.091 74.4971 658.187C72.0509 659.263 69.2035 659.801 65.9548 659.801C62.9802 659.801 60.1328 659.322 57.4126 658.363C54.6924 657.404 52.158 656.005 49.8097 654.165ZM96.4252 673.598H87.971V629.566H95.3684L95.8088 633.558C97.0612 632.129 98.5583 631.014 100.3 630.212C102.061 629.39 103.979 628.979 106.054 628.979C108.754 628.979 111.152 629.644 113.246 630.975C115.34 632.286 116.993 634.096 118.207 636.405C119.42 638.695 120.027 641.308 120.027 644.243C120.027 647.159 119.42 649.772 118.207 652.081C116.993 654.39 115.34 656.21 113.246 657.541C111.152 658.852 108.754 659.508 106.054 659.508C104.136 659.508 102.355 659.165 100.711 658.48C99.0867 657.776 97.6581 656.807 96.4252 655.574V673.598ZM103.911 651.934C105.378 651.934 106.67 651.611 107.786 650.965C108.901 650.3 109.772 649.39 110.398 648.235C111.044 647.061 111.367 645.731 111.367 644.243C111.367 642.736 111.044 641.406 110.398 640.251C109.772 639.096 108.901 638.186 107.786 637.521C106.67 636.856 105.388 636.523 103.94 636.523C102.57 636.523 101.337 636.826 100.241 637.433C99.1454 638.02 98.255 638.842 97.5701 639.899C96.9047 640.955 96.5231 642.169 96.4252 643.539V645.006C96.5231 646.337 96.9047 647.531 97.5701 648.588C98.2354 649.625 99.1161 650.447 100.212 651.054C101.308 651.641 102.541 651.934 103.911 651.934ZM152.405 655.633C148.765 658.216 144.783 659.508 140.458 659.508C137.248 659.508 134.362 658.823 131.798 657.453C129.254 656.063 127.238 654.185 125.751 651.817C124.283 649.449 123.549 646.778 123.549 643.803C123.549 640.965 124.215 638.431 125.545 636.2C126.896 633.969 128.725 632.208 131.035 630.916C133.344 629.624 135.966 628.979 138.902 628.979C141.935 628.979 144.606 629.693 146.916 631.122C149.225 632.531 151.025 634.507 152.317 637.051C153.609 639.576 154.254 642.501 154.254 645.828V646.768H132.62C132.972 647.922 133.549 648.94 134.352 649.821C135.154 650.682 136.152 651.367 137.346 651.875C138.54 652.384 139.91 652.639 141.456 652.639C144.45 652.639 147.239 651.67 149.822 649.733L152.405 655.633ZM132.238 642.482H146.475C146.319 641.21 145.918 640.094 145.272 639.135C144.646 638.157 143.814 637.394 142.777 636.846C141.759 636.298 140.614 636.024 139.342 636.024C138.05 636.024 136.896 636.308 135.878 636.875C134.88 637.443 134.068 638.206 133.442 639.165C132.815 640.124 132.414 641.229 132.238 642.482ZM188.893 658.921H180.468L180.468 643.891C180.468 641.601 179.92 639.811 178.824 638.519C177.748 637.208 176.271 636.552 174.392 636.552C172.435 636.552 170.879 637.237 169.724 638.607C168.589 639.957 168.022 641.797 168.022 644.126V658.921H159.597V629.566H166.407L166.701 634.263C167.758 632.54 169.137 631.229 170.84 630.329C172.542 629.429 174.548 628.979 176.858 628.979C180.595 628.979 183.531 630.133 185.664 632.443C187.817 634.732 188.893 637.903 188.893 641.954L188.893 658.921ZM215.401 658.157C213.15 659.058 210.968 659.508 208.854 659.508C206.663 659.508 204.725 659.048 203.042 658.128C201.379 657.189 200.077 655.887 199.138 654.224C198.199 652.541 197.729 650.603 197.729 648.412L197.729 637.081H192.592V629.566H198.169V622.227H206.154V629.566H214.285V637.081H206.154V646.885C206.154 648.49 206.594 649.742 207.475 650.643C208.355 651.523 209.451 651.964 210.762 651.964C211.956 651.964 213.121 651.592 214.256 650.848L215.401 658.157Z" fill="black"/>
<rect x="47.2822" y="701.255" width="350.693" height="62.1228" rx="31.0614" fill="black"/>
<path d="M369.043 725.001L375.656 731.614C375.756 731.715 375.827 731.823 375.87 731.94C375.912 732.057 375.932 732.182 375.932 732.316C375.932 732.449 375.911 732.575 375.869 732.691C375.826 732.808 375.756 732.917 375.656 733.017L369.043 739.63C368.859 739.814 368.63 739.91 368.354 739.918C368.078 739.926 367.84 739.83 367.64 739.63C367.44 739.446 367.335 739.217 367.327 738.941C367.318 738.665 367.414 738.427 367.615 738.227L372.525 733.318H361.328C361.044 733.318 360.806 733.222 360.613 733.029C360.421 732.837 360.325 732.599 360.326 732.316C360.326 732.032 360.422 731.794 360.613 731.601C360.805 731.409 361.043 731.313 361.328 731.314H372.525L367.615 726.404C367.431 726.22 367.335 725.987 367.327 725.703C367.318 725.419 367.414 725.185 367.615 725.001C367.799 724.801 368.033 724.701 368.317 724.701C368.6 724.701 368.843 724.801 369.043 725.001Z" fill="white"/>
<path d="M187.066 735.701L188.495 733.402C188.945 733.767 189.379 734.067 189.796 734.302C190.22 734.53 190.638 734.7 191.049 734.811C191.46 734.915 191.881 734.967 192.311 734.967C192.82 734.967 193.26 734.896 193.632 734.752C194.004 734.609 194.291 734.403 194.493 734.136C194.702 733.868 194.806 733.558 194.806 733.206C194.806 732.795 194.676 732.449 194.415 732.169C194.154 731.888 193.812 731.644 193.388 731.435C192.97 731.22 192.517 731.014 192.027 730.819C191.551 730.623 191.072 730.411 190.589 730.182C190.113 729.948 189.672 729.67 189.268 729.351C188.87 729.031 188.547 728.643 188.299 728.186C188.058 727.723 187.937 727.162 187.937 726.503C187.937 725.642 188.153 724.899 188.583 724.272C189.02 723.646 189.617 723.163 190.374 722.824C191.13 722.485 191.995 722.315 192.967 722.315C193.652 722.315 194.363 722.407 195.1 722.589C195.844 722.772 196.584 723.049 197.321 723.421L196.137 725.858C195.674 725.577 195.175 725.355 194.64 725.192C194.105 725.029 193.603 724.948 193.133 724.948C192.709 724.948 192.337 725.013 192.018 725.143C191.705 725.274 191.46 725.456 191.284 725.691C191.108 725.92 191.02 726.19 191.02 726.503C191.02 726.875 191.147 727.198 191.401 727.472C191.656 727.74 191.985 727.978 192.389 728.186C192.8 728.395 193.241 728.604 193.71 728.813C194.193 729.021 194.679 729.25 195.168 729.498C195.664 729.745 196.114 730.039 196.519 730.378C196.93 730.711 197.259 731.112 197.507 731.582C197.761 732.045 197.889 732.603 197.889 733.255C197.889 734.116 197.66 734.873 197.204 735.525C196.747 736.171 196.111 736.676 195.296 737.042C194.48 737.401 193.531 737.58 192.448 737.58C191.457 737.58 190.507 737.42 189.601 737.1C188.694 736.781 187.849 736.314 187.066 735.701ZM201.206 725.163C200.834 725.163 200.521 725.032 200.266 724.771C200.012 724.51 199.885 724.194 199.885 723.822C199.885 723.45 200.012 723.137 200.266 722.883C200.521 722.622 200.834 722.492 201.206 722.492C201.584 722.492 201.9 722.622 202.155 722.883C202.416 723.137 202.546 723.45 202.546 723.822C202.546 724.194 202.416 724.51 202.155 724.771C201.9 725.032 201.584 725.163 201.206 725.163ZM202.615 737.286H199.806V727.501H202.615V737.286ZM209.034 737.404C208.153 737.404 207.364 737.185 206.666 736.748C205.968 736.305 205.42 735.704 205.022 734.948C204.624 734.185 204.425 733.32 204.425 732.355C204.425 731.383 204.624 730.518 205.022 729.762C205.42 729.005 205.968 728.408 206.666 727.971C207.364 727.528 208.156 727.306 209.043 727.306C209.735 727.306 210.368 727.443 210.942 727.717C211.522 727.984 212.021 728.356 212.439 728.832L212.566 727.501H215.032V737.012C215.032 738.095 214.794 739.038 214.318 739.84C213.848 740.649 213.182 741.272 212.321 741.709C211.46 742.153 210.452 742.375 209.298 742.375C207.693 742.375 206.238 741.872 204.934 740.868L206.069 738.578C206.936 739.433 207.948 739.86 209.102 739.86C209.722 739.86 210.263 739.736 210.726 739.488C211.196 739.24 211.561 738.894 211.822 738.451C212.09 738.007 212.224 737.492 212.224 736.905V736.102C211.819 736.507 211.346 736.826 210.805 737.061C210.263 737.29 209.673 737.404 209.034 737.404ZM209.758 734.899C210.214 734.899 210.629 734.801 211 734.605C211.372 734.403 211.669 734.126 211.891 733.774C212.113 733.415 212.224 733.01 212.224 732.56V732.139C212.224 731.689 212.109 731.288 211.881 730.936C211.659 730.584 211.362 730.31 210.991 730.114C210.625 729.912 210.214 729.811 209.758 729.811C209.288 729.811 208.867 729.922 208.495 730.143C208.124 730.365 207.83 730.668 207.615 731.053C207.4 731.432 207.292 731.866 207.292 732.355C207.292 732.844 207.4 733.281 207.615 733.666C207.83 734.051 208.124 734.354 208.495 734.576C208.867 734.791 209.288 734.899 209.758 734.899ZM227.087 737.286H224.279V732.276C224.279 731.513 224.096 730.916 223.731 730.486C223.372 730.049 222.879 729.83 222.253 729.83C221.601 729.83 221.082 730.059 220.697 730.515C220.319 730.965 220.13 731.578 220.13 732.355V737.286H217.322V727.501H219.592L219.689 729.067C220.042 728.493 220.502 728.056 221.069 727.756C221.637 727.456 222.305 727.306 223.075 727.306C224.321 727.306 225.3 727.691 226.011 728.46C226.728 729.224 227.087 730.28 227.087 731.631V737.286ZM246.637 722.609V730.682C246.637 732.117 246.38 733.35 245.864 734.38C245.355 735.411 244.622 736.204 243.663 736.758C242.71 737.306 241.565 737.58 240.228 737.58C238.897 737.58 237.753 737.306 236.794 736.758C235.835 736.204 235.098 735.411 234.582 734.38C234.073 733.35 233.819 732.117 233.819 730.682V722.609H236.833V730.31C236.833 731.334 236.96 732.188 237.214 732.873C237.475 733.558 237.857 734.077 238.359 734.429C238.861 734.775 239.484 734.948 240.228 734.948C240.972 734.948 241.595 734.775 242.097 734.429C242.599 734.077 242.978 733.558 243.232 732.873C243.493 732.188 243.624 731.334 243.624 730.31V722.609H246.637ZM251.843 742.179H249.025V727.501H251.491L251.637 728.832C252.055 728.356 252.554 727.984 253.134 727.717C253.722 727.443 254.361 727.306 255.052 727.306C255.953 727.306 256.752 727.528 257.45 727.971C258.148 728.408 258.699 729.012 259.103 729.781C259.508 730.545 259.71 731.415 259.71 732.394C259.71 733.366 259.508 734.237 259.103 735.006C258.699 735.776 258.148 736.383 257.45 736.826C256.752 737.264 255.953 737.482 255.052 737.482C254.413 737.482 253.819 737.368 253.271 737.14C252.73 736.905 252.254 736.582 251.843 736.171V742.179ZM254.338 734.958C254.827 734.958 255.258 734.85 255.63 734.635C256.001 734.413 256.292 734.11 256.501 733.725C256.716 733.333 256.823 732.89 256.823 732.394C256.823 731.892 256.716 731.448 256.501 731.063C256.292 730.678 256.001 730.375 255.63 730.153C255.258 729.931 254.831 729.82 254.348 729.82C253.891 729.82 253.48 729.922 253.115 730.124C252.75 730.319 252.453 730.593 252.224 730.946C252.003 731.298 251.875 731.702 251.843 732.159V732.648C251.875 733.092 252.003 733.49 252.224 733.842C252.446 734.188 252.74 734.462 253.105 734.664C253.47 734.86 253.881 734.958 254.338 734.958Z" fill="white"/>
<rect x="48.2842" y="778.405" width="350.693" height="62.1228" rx="31.0614" fill="white"/>
<path d="M208.362 815.44H198.773V800.762H201.787V812.808H208.362V815.44ZM214.028 815.635C213.023 815.635 212.123 815.417 211.327 814.98C210.531 814.536 209.905 813.933 209.448 813.17C208.998 812.4 208.773 811.526 208.773 810.547C208.773 809.575 208.998 808.708 209.448 807.944C209.905 807.175 210.531 806.568 211.327 806.124C212.123 805.681 213.023 805.459 214.028 805.459C215.032 805.459 215.926 805.681 216.709 806.124C217.498 806.568 218.118 807.175 218.568 807.944C219.024 808.708 219.253 809.575 219.253 810.547C219.253 811.526 219.024 812.4 218.568 813.17C218.118 813.933 217.498 814.536 216.709 814.98C215.926 815.417 215.032 815.635 214.028 815.635ZM214.018 813.121C214.468 813.121 214.869 813.01 215.221 812.788C215.58 812.56 215.861 812.253 216.063 811.868C216.272 811.477 216.376 811.03 216.376 810.528C216.376 810.045 216.272 809.611 216.063 809.226C215.861 808.841 215.58 808.538 215.221 808.316C214.869 808.088 214.468 807.974 214.018 807.974C213.561 807.974 213.153 808.088 212.795 808.316C212.442 808.538 212.162 808.841 211.953 809.226C211.751 809.611 211.65 810.045 211.65 810.528C211.65 811.03 211.751 811.477 211.953 811.868C212.162 812.253 212.442 812.56 212.795 812.788C213.153 813.01 213.561 813.121 214.018 813.121ZM225.045 815.557C224.165 815.557 223.376 815.339 222.678 814.902C221.98 814.458 221.432 813.858 221.034 813.101C220.636 812.338 220.437 811.474 220.437 810.508C220.437 809.536 220.636 808.672 221.034 807.915C221.432 807.158 221.98 806.561 222.678 806.124C223.376 805.681 224.168 805.459 225.055 805.459C225.747 805.459 226.38 805.596 226.954 805.87C227.534 806.137 228.033 806.509 228.451 806.985L228.578 805.655H231.044V815.166C231.044 816.249 230.806 817.191 230.329 817.994C229.86 818.802 229.194 819.425 228.333 819.862C227.472 820.306 226.464 820.528 225.31 820.528C223.705 820.528 222.25 820.026 220.946 819.021L222.081 816.731C222.948 817.586 223.959 818.013 225.114 818.013C225.734 818.013 226.275 817.889 226.738 817.641C227.208 817.393 227.573 817.048 227.834 816.604C228.102 816.161 228.235 815.645 228.235 815.058V814.256C227.831 814.66 227.358 814.98 226.817 815.215C226.275 815.443 225.685 815.557 225.045 815.557ZM225.77 813.052C226.226 813.052 226.64 812.954 227.012 812.759C227.384 812.556 227.681 812.279 227.903 811.927C228.124 811.568 228.235 811.164 228.235 810.714V810.293C228.235 809.843 228.121 809.442 227.893 809.089C227.671 808.737 227.374 808.463 227.002 808.267C226.637 808.065 226.226 807.964 225.77 807.964C225.3 807.964 224.879 808.075 224.507 808.297C224.135 808.518 223.842 808.822 223.627 809.207C223.411 809.585 223.304 810.019 223.304 810.508C223.304 810.997 223.411 811.434 223.627 811.819C223.842 812.204 224.135 812.507 224.507 812.729C224.879 812.945 225.3 813.052 225.77 813.052ZM234.752 803.316C234.38 803.316 234.067 803.186 233.813 802.925C233.558 802.664 233.431 802.347 233.431 801.976C233.431 801.604 233.558 801.291 233.813 801.036C234.067 800.775 234.38 800.645 234.752 800.645C235.131 800.645 235.447 800.775 235.701 801.036C235.962 801.291 236.093 801.604 236.093 801.976C236.093 802.347 235.962 802.664 235.701 802.925C235.447 803.186 235.131 803.316 234.752 803.316ZM236.161 815.44H233.353V805.655H236.161V815.44ZM248.343 815.44H245.535V810.43C245.535 809.667 245.353 809.07 244.987 808.639C244.628 808.202 244.136 807.984 243.51 807.984C242.857 807.984 242.339 808.212 241.954 808.669C241.576 809.119 241.386 809.732 241.386 810.508V815.44H238.578V805.655H240.848L240.946 807.22C241.298 806.646 241.758 806.209 242.326 805.909C242.893 805.609 243.562 805.459 244.332 805.459C245.578 805.459 246.556 805.844 247.267 806.614C247.985 807.377 248.343 808.434 248.343 809.784V815.44Z" fill="black"/>
<g opacity="0.4">
<rect x="-4.04102" y="178.034" width="132.261" height="49.097" transform="rotate(-27.265 -4.04102 178.034)" fill="white"/>
<rect x="134.011" y="106.887" width="132.261" height="49.097" transform="rotate(-27.265 134.011 106.887)" fill="white"/>
<rect x="272.062" y="35.739" width="132.261" height="49.097" transform="rotate(-27.265 272.062 35.739)" fill="white"/>
</g>
<g opacity="0.4">
<rect x="15.999" y="87.855" width="132.261" height="49.097" transform="rotate(-27.265 15.999 87.855)" fill="white"/>
<rect x="154.05" y="16.7083" width="132.261" height="49.097" transform="rotate(-27.265 154.05 16.7083)" fill="white"/>
</g>
<g clip-path="url(#clip1_15_1752)">
<path d="M260.701 188.572L180.542 188.572C175.008 188.572 170.522 193.058 170.522 198.592L170.522 278.75C170.522 284.284 175.008 288.77 180.542 288.77H260.701C266.234 288.77 270.72 284.284 270.72 278.75V198.592C270.72 193.058 266.234 188.572 260.701 188.572Z" fill="black"/>
<path d="M220.122 254.702C232.573 254.702 242.666 244.609 242.666 232.158C242.666 219.707 232.573 209.613 220.122 209.613C207.671 209.613 197.577 219.707 197.577 232.158C197.577 244.609 207.671 254.702 220.122 254.702Z" fill="black"/>
<path d="M204.591 225.644H203.589C200.269 225.644 197.577 228.336 197.577 231.656V260.713C197.577 264.034 200.269 266.725 203.589 266.725H204.591C207.911 266.725 210.603 264.034 210.603 260.713V231.656C210.603 228.336 207.911 225.644 204.591 225.644Z" fill="black"/>
<path d="M220.122 255.704C232.573 255.704 242.666 245.611 242.666 233.16C242.666 220.709 232.573 210.615 220.122 210.615C207.671 210.615 197.577 220.709 197.577 233.16C197.577 245.611 207.671 255.704 220.122 255.704Z" fill="#0AF3F3"/>
<path d="M204.59 226.647H203.588C200.268 226.647 197.576 229.339 197.576 232.659V261.717C197.576 265.037 200.268 267.729 203.588 267.729H204.59C207.91 267.729 210.602 265.037 210.602 261.717V232.659C210.602 229.339 207.91 226.647 204.59 226.647Z" fill="#0AF3F3"/>
</g>
</g>
</g>
<defs>
<filter id="filter0_i_15_1752" x="3.04004" y="-0.000244141" width="434.713" height="890.118" filterUnits="userSpaceOnUse" color-interpolation-filters="sRGB">
<feFlood flood-opacity="0" result="BackgroundImageFix"/>
<feBlend mode="normal" in="SourceGraphic" in2="BackgroundImageFix" result="shape"/>
<feColorMatrix in="SourceAlpha" type="matrix" values="0 0 0 0 0 0 0 0 0 0 0 0 0 0 0 0 0 0 127 0" result="hardAlpha"/>
<feOffset/>
<feGaussianBlur stdDeviation="11.6274"/>
<feComposite in2="hardAlpha" operator="arithmetic" k2="-1" k3="1"/>
<feColorMatrix type="matrix" values="0 0 0 0 0 0 0 0 0 0 0 0 0 0 0 0 0 0 0.32 0"/>
<feBlend mode="normal" in2="shape" result="effect1_innerShadow_15_1752"/>
</filter>
<filter id="filter1_ii_15_1752" x="0.000976562" y="137.863" width="3.04004" height="41.0056" filterUnits="userSpaceOnUse" color-interpolation-filters="sRGB">
<feFlood flood-opacity="0" result="BackgroundImageFix"/>
<feBlend mode="normal" in="SourceGraphic" in2="BackgroundImageFix" result="shape"/>
<feColorMatrix in="SourceAlpha" type="matrix" values="0 0 0 0 0 0 0 0 0 0 0 0 0 0 0 0 0 0 127 0" result="hardAlpha"/>
<feOffset dy="5.81369"/>
<feGaussianBlur stdDeviation="1.45342"/>
<feComposite in2="hardAlpha" operator="arithmetic" k2="-1" k3="1"/>
<feColorMatrix type="matrix" values="0 0 0 0 1 0 0 0 0 1 0 0 0 0 1 0 0 0 0.64 0"/>
<feBlend mode="normal" in2="shape" result="effect1_innerShadow_15_1752"/>
<feColorMatrix in="SourceAlpha" type="matrix" values="0 0 0 0 0 0 0 0 0 0 0 0 0 0 0 0 0 0 127 0" result="hardAlpha"/>
<feOffset dy="-5.81369"/>
<feGaussianBlur stdDeviation="1.45342"/>
<feComposite in2="hardAlpha" operator="arithmetic" k2="-1" k3="1"/>
<feColorMatrix type="matrix" values="0 0 0 0 1 0 0 0 0 1 0 0 0 0 1 0 0 0 0.64 0"/>
<feBlend mode="normal" in2="effect1_innerShadow_15_1752" result="effect2_innerShadow_15_1752"/>
</filter>
<filter id="filter2_ii_15_1752" x="437.752" y="225.844" width="3.04004" height="111.39" filterUnits="userSpaceOnUse" color-interpolation-filters="sRGB">
<feFlood flood-opacity="0" result="BackgroundImageFix"/>
<feBlend mode="normal" in="SourceGraphic" in2="BackgroundImageFix" result="shape"/>
<feColorMatrix in="SourceAlpha" type="matrix" values="0 0 0 0 0 0 0 0 0 0 0 0 0 0 0 0 0 0 127 0" result="hardAlpha"/>
<feOffset dy="5.81369"/>
<feGaussianBlur stdDeviation="1.45342"/>
<feComposite in2="hardAlpha" operator="arithmetic" k2="-1" k3="1"/>
<feColorMatrix type="matrix" values="0 0 0 0 1 0 0 0 0 1 0 0 0 0 1 0 0 0 0.64 0"/>
<feBlend mode="normal" in2="shape" result="effect1_innerShadow_15_1752"/>
<feColorMatrix in="SourceAlpha" type="matrix" values="0 0 0 0 0 0 0 0 0 0 0 0 0 0 0 0 0 0 127 0" result="hardAlpha"/>
<feOffset dy="-5.81369"/>
<feGaussianBlur stdDeviation="1.45342"/>
<feComposite in2="hardAlpha" operator="arithmetic" k2="-1" k3="1"/>
<feColorMatrix type="matrix" values="0 0 0 0 1 0 0 0 0 1 0 0 0 0 1 0 0 0 0.64 0"/>
<feBlend mode="normal" in2="effect1_innerShadow_15_1752" result="effect2_innerShadow_15_1752"/>
</filter>
<filter id="filter3_ii_15_1752" x="3.04004" y="-0.000244141" width="434.713" height="890.118" filterUnits="userSpaceOnUse" color-interpolation-filters="sRGB">
<feFlood flood-opacity="0" result="BackgroundImageFix"/>
<feBlend mode="normal" in="SourceGraphic" in2="BackgroundImageFix" result="shape"/>
<feColorMatrix in="SourceAlpha" type="matrix" values="0 0 0 0 0 0 0 0 0 0 0 0 0 0 0 0 0 0 127 0" result="hardAlpha"/>
<feOffset/>
<feGaussianBlur stdDeviation="7.26711"/>
<feComposite in2="hardAlpha" operator="arithmetic" k2="-1" k3="1"/>
<feColorMatrix type="matrix" values="0 0 0 0 1 0 0 0 0 1 0 0 0 0 1 0 0 0 0.88 0"/>
<feBlend mode="normal" in2="shape" result="effect1_innerShadow_15_1752"/>
<feColorMatrix in="SourceAlpha" type="matrix" values="0 0 0 0 0 0 0 0 0 0 0 0 0 0 0 0 0 0 127 0" result="hardAlpha"/>
<feOffset/>
<feGaussianBlur stdDeviation="3.63355"/>
<feComposite in2="hardAlpha" operator="arithmetic" k2="-1" k3="1"/>
<feColorMatrix type="matrix" values="0 0 0 0 0 0 0 0 0 0 0 0 0 0 0 0 0 0 1 0"/>
<feBlend mode="normal" in2="effect1_innerShadow_15_1752" result="effect2_innerShadow_15_1752"/>
</filter>
<filter id="filter4_iiii_15_1752" x="0.000976562" y="137.863" width="3.04004" height="41.0056" filterUnits="userSpaceOnUse" color-interpolation-filters="sRGB">
<feFlood flood-opacity="0" result="BackgroundImageFix"/>
<feBlend mode="normal" in="SourceGraphic" in2="BackgroundImageFix" result="shape"/>
<feColorMatrix in="SourceAlpha" type="matrix" values="0 0 0 0 0 0 0 0 0 0 0 0 0 0 0 0 0 0 127 0" result="hardAlpha"/>
<feOffset dy="5.81369"/>
<feGaussianBlur stdDeviation="1.45342"/>
<feComposite in2="hardAlpha" operator="arithmetic" k2="-1" k3="1"/>
<feColorMatrix type="matrix" values="0 0 0 0 1 0 0 0 0 1 0 0 0 0 1 0 0 0 0.08 0"/>
<feBlend mode="normal" in2="shape" result="effect1_innerShadow_15_1752"/>
<feColorMatrix in="SourceAlpha" type="matrix" values="0 0 0 0 0 0 0 0 0 0 0 0 0 0 0 0 0 0 127 0" result="hardAlpha"/>
<feOffset dy="-5.81369"/>
<feGaussianBlur stdDeviation="1.45342"/>
<feComposite in2="hardAlpha" operator="arithmetic" k2="-1" k3="1"/>
<feColorMatrix type="matrix" values="0 0 0 0 1 0 0 0 0 1 0 0 0 0 1 0 0 0 0.08 0"/>
<feBlend mode="normal" in2="effect1_innerShadow_15_1752" result="effect2_innerShadow_15_1752"/>
<feColorMatrix in="SourceAlpha" type="matrix" values="0 0 0 0 0 0 0 0 0 0 0 0 0 0 0 0 0 0 127 0" result="hardAlpha"/>
<feOffset dy="1.45342"/>
<feGaussianBlur stdDeviation="0.726711"/>
<feComposite in2="hardAlpha" operator="arithmetic" k2="-1" k3="1"/>
<feColorMatrix type="matrix" values="0 0 0 0 1 0 0 0 0 1 0 0 0 0 1 0 0 0 0.32 0"/>
<feBlend mode="normal" in2="effect2_innerShadow_15_1752" result="effect3_innerShadow_15_1752"/>
<feColorMatrix in="SourceAlpha" type="matrix" values="0 0 0 0 0 0 0 0 0 0 0 0 0 0 0 0 0 0 127 0" result="hardAlpha"/>
<feOffset dy="-1.45342"/>
<feGaussianBlur stdDeviation="0.726711"/>
<feComposite in2="hardAlpha" operator="arithmetic" k2="-1" k3="1"/>
<feColorMatrix type="matrix" values="0 0 0 0 1 0 0 0 0 1 0 0 0 0 1 0 0 0 0.32 0"/>
<feBlend mode="normal" in2="effect3_innerShadow_15_1752" result="effect4_innerShadow_15_1752"/>
</filter>
<filter id="filter5_iiii_15_1752" x="437.752" y="225.844" width="3.04004" height="111.39" filterUnits="userSpaceOnUse" color-interpolation-filters="sRGB">
<feFlood flood-opacity="0" result="BackgroundImageFix"/>
<feBlend mode="normal" in="SourceGraphic" in2="BackgroundImageFix" result="shape"/>
<feColorMatrix in="SourceAlpha" type="matrix" values="0 0 0 0 0 0 0 0 0 0 0 0 0 0 0 0 0 0 127 0" result="hardAlpha"/>
<feOffset dy="5.81369"/>
<feGaussianBlur stdDeviation="1.45342"/>
<feComposite in2="hardAlpha" operator="arithmetic" k2="-1" k3="1"/>
<feColorMatrix type="matrix" values="0 0 0 0 1 0 0 0 0 1 0 0 0 0 1 0 0 0 0.08 0"/>
<feBlend mode="normal" in2="shape" result="effect1_innerShadow_15_1752"/>
<feColorMatrix in="SourceAlpha" type="matrix" values="0 0 0 0 0 0 0 0 0 0 0 0 0 0 0 0 0 0 127 0" result="hardAlpha"/>
<feOffset dy="-5.81369"/>
<feGaussianBlur stdDeviation="1.45342"/>
<feComposite in2="hardAlpha" operator="arithmetic" k2="-1" k3="1"/>
<feColorMatrix type="matrix" values="0 0 0 0 1 0 0 0 0 1 0 0 0 0 1 0 0 0 0.08 0"/>
<feBlend mode="normal" in2="effect1_innerShadow_15_1752" result="effect2_innerShadow_15_1752"/>
<feColorMatrix in="SourceAlpha" type="matrix" values="0 0 0 0 0 0 0 0 0 0 0 0 0 0 0 0 0 0 127 0" result="hardAlpha"/>
<feOffset dy="1.45342"/>
<feGaussianBlur stdDeviation="0.726711"/>
<feComposite in2="hardAlpha" operator="arithmetic" k2="-1" k3="1"/>
<feColorMatrix type="matrix" values="0 0 0 0 1 0 0 0 0 1 0 0 0 0 1 0 0 0 0.32 0"/>
<feBlend mode="normal" in2="effect2_innerShadow_15_1752" result="effect3_innerShadow_15_1752"/>
<feColorMatrix in="SourceAlpha" type="matrix" values="0 0 0 0 0 0 0 0 0 0 0 0 0 0 0 0 0 0 127 0" result="hardAlpha"/>
<feOffset dy="-1.45342"/>
<feGaussianBlur stdDeviation="0.726711"/>
<feComposite in2="hardAlpha" operator="arithmetic" k2="-1" k3="1"/>
<feColorMatrix type="matrix" values="0 0 0 0 1 0 0 0 0 1 0 0 0 0 1 0 0 0 0.32 0"/>
<feBlend mode="normal" in2="effect3_innerShadow_15_1752" result="effect4_innerShadow_15_1752"/>
</filter>
<filter id="filter6_i_15_1752" x="196.989" y="29.1255" width="47.4219" height="8.49463" filterUnits="userSpaceOnUse" color-interpolation-filters="sRGB">
<feFlood flood-opacity="0" result="BackgroundImageFix"/>
<feBlend mode="normal" in="SourceGraphic" in2="BackgroundImageFix" result="shape"/>
<feColorMatrix in="SourceAlpha" type="matrix" values="0 0 0 0 0 0 0 0 0 0 0 0 0 0 0 0 0 0 127 0" result="hardAlpha"/>
<feOffset/>
<feGaussianBlur stdDeviation="5.81369"/>
<feComposite in2="hardAlpha" operator="arithmetic" k2="-1" k3="1"/>
<feColorMatrix type="matrix" values="0 0 0 0 0 0 0 0 0 0 0 0 0 0 0 0 0 0 0.48 0"/>
<feBlend mode="normal" in2="shape" result="effect1_innerShadow_15_1752"/>
</filter>
<filter id="filter7_f_15_1752" x="195.667" y="27.7985" width="50.067" height="11.1463" filterUnits="userSpaceOnUse" color-interpolation-filters="sRGB">
<feFlood flood-opacity="0" result="BackgroundImageFix"/>
<feBlend mode="normal" in="SourceGraphic" in2="BackgroundImageFix" result="shape"/>
<feGaussianBlur stdDeviation="0.726711" result="effect1_foregroundBlur_15_1752"/>
</filter>
<linearGradient id="paint0_linear_15_1752" x1="0.607422" y1="80.3959" x2="10.9433" y2="80.3959" gradientUnits="userSpaceOnUse">
<stop offset="0.109375" stop-color="#D1D1D1"/>
<stop offset="0.317708" stop-color="#E3E3E3"/>
<stop offset="0.552083" stop-color="#D2D2D2"/>
<stop offset="0.807292" stop-color="#E6E6E6"/>
</linearGradient>
<linearGradient id="paint1_linear_15_1752" x1="0.608398" y1="813.967" x2="10.9442" y2="813.967" gradientUnits="userSpaceOnUse">
<stop offset="0.109375" stop-color="#D1D1D1"/>
<stop offset="0.317708" stop-color="#E3E3E3"/>
<stop offset="0.552083" stop-color="#D2D2D2"/>
<stop offset="0.807292" stop-color="#E6E6E6"/>
</linearGradient>
<linearGradient id="paint2_linear_15_1752" x1="429.849" y1="80.3949" x2="440.184" y2="80.3949" gradientUnits="userSpaceOnUse">
<stop offset="0.0988321" stop-color="#E6E6E6"/>
<stop offset="0.368786" stop-color="#D2D2D2"/>
<stop offset="0.624532" stop-color="#E3E3E3"/>
<stop offset="0.798581" stop-color="#D1D1D1"/>
</linearGradient>
<linearGradient id="paint3_linear_15_1752" x1="429.849" y1="813.969" x2="440.184" y2="813.969" gradientUnits="userSpaceOnUse">
<stop offset="0.0988321" stop-color="#E6E6E6"/>
<stop offset="0.368786" stop-color="#D2D2D2"/>
<stop offset="0.624532" stop-color="#E3E3E3"/>
<stop offset="0.798581" stop-color="#D1D1D1"/>
</linearGradient>
<linearGradient id="paint4_linear_15_1752" x1="340.778" y1="-4.24878" x2="340.778" y2="6.06584" gradientUnits="userSpaceOnUse">
<stop offset="0.238306" stop-color="#D1D1D1"/>
<stop offset="0.416703" stop-color="#E3E3E3"/>
<stop offset="0.700226" stop-color="#D2D2D2"/>
<stop offset="0.926408" stop-color="#E6E6E6"/>
</linearGradient>
<linearGradient id="paint5_linear_15_1752" x1="84.8146" y1="882.228" x2="84.8146" y2="892.543" gradientUnits="userSpaceOnUse">
<stop offset="0.0988321" stop-color="#E6E6E6"/>
<stop offset="0.368786" stop-color="#D2D2D2"/>
<stop offset="0.624532" stop-color="#E3E3E3"/>
<stop offset="0.798581" stop-color="#D1D1D1"/>
</linearGradient>
<linearGradient id="paint6_linear_15_1752" x1="35.068" y1="16.108" x2="398.507" y2="863.608" gradientUnits="userSpaceOnUse">
<stop stop-color="white" stop-opacity="0.16"/>
<stop offset="1" stop-color="white" stop-opacity="0.05"/>
</linearGradient>
<linearGradient id="paint7_linear_15_1752" x1="0.000976563" y1="158.063" x2="3.04092" y2="158.063" gradientUnits="userSpaceOnUse">
<stop stop-opacity="0"/>
<stop offset="0.333333" stop-color="#D0D0D0" stop-opacity="0.42"/>
<stop offset="1" stop-opacity="0.24"/>
</linearGradient>
<linearGradient id="paint8_linear_15_1752" x1="437.752" y1="280.627" x2="440.792" y2="280.627" gradientUnits="userSpaceOnUse">
<stop stop-opacity="0.24"/>
<stop offset="0.573835" stop-color="#D0D0D0" stop-opacity="0.42"/>
<stop offset="1" stop-opacity="0"/>
</linearGradient>
<linearGradient id="paint9_linear_15_1752" x1="220.397" y1="-0.00119166" x2="220.397" y2="890.116" gradientUnits="userSpaceOnUse">
<stop stop-color="white" stop-opacity="0.64"/>
<stop offset="1" stop-color="white" stop-opacity="0.32"/>
</linearGradient>
<linearGradient id="paint10_linear_15_1752" x1="0.607422" y1="80.3959" x2="10.9433" y2="80.3959" gradientUnits="userSpaceOnUse">
<stop offset="0.123628" stop-color="#8F8F8F"/>
<stop offset="0.365738" stop-color="#525252"/>
<stop offset="0.827659" stop-color="#141414"/>
</linearGradient>
<linearGradient id="paint11_linear_15_1752" x1="0.608398" y1="813.967" x2="10.9442" y2="813.967" gradientUnits="userSpaceOnUse">
<stop offset="0.123628" stop-color="#8F8F8F"/>
<stop offset="0.365738" stop-color="#525252"/>
<stop offset="0.827659" stop-color="#141414"/>
</linearGradient>
<linearGradient id="paint12_linear_15_1752" x1="429.849" y1="80.3949" x2="440.184" y2="80.3949" gradientUnits="userSpaceOnUse">
<stop offset="0.088176" stop-color="#141414"/>
<stop offset="0.536358" stop-color="#525252"/>
<stop offset="0.756584" stop-color="#8F8F8F"/>
</linearGradient>
<linearGradient id="paint13_linear_15_1752" x1="429.849" y1="813.969" x2="440.184" y2="813.969" gradientUnits="userSpaceOnUse">
<stop offset="0.088176" stop-color="#141414"/>
<stop offset="0.529254" stop-color="#525252"/>
<stop offset="0.770792" stop-color="#8F8F8F"/>
</linearGradient>
<linearGradient id="paint14_linear_15_1752" x1="340.778" y1="-4.24878" x2="340.778" y2="6.06584" gradientUnits="userSpaceOnUse">
<stop offset="0.420124" stop-color="#8F8F8F"/>
<stop offset="0.610413" stop-color="#525252"/>
<stop offset="0.976264" stop-color="#141414"/>
</linearGradient>
<linearGradient id="paint15_linear_15_1752" x1="84.8146" y1="882.228" x2="84.8146" y2="892.543" gradientUnits="userSpaceOnUse">
<stop offset="0.122861"/>
<stop offset="0.584624" stop-color="#292929"/>
<stop offset="0.87589" stop-color="#7A7A7A"/>
</linearGradient>
<linearGradient id="paint16_linear_15_1752" x1="35.068" y1="16.108" x2="398.507" y2="863.608" gradientUnits="userSpaceOnUse">
<stop stop-color="white" stop-opacity="0.16"/>
<stop offset="1" stop-color="white" stop-opacity="0.05"/>
</linearGradient>
<linearGradient id="paint17_linear_15_1752" x1="0.000976563" y1="158.063" x2="3.04092" y2="158.063" gradientUnits="userSpaceOnUse">
<stop stop-color="white" stop-opacity="0.08"/>
<stop offset="0.276042" stop-color="white" stop-opacity="0.24"/>
<stop offset="1" stop-color="white" stop-opacity="0"/>
</linearGradient>
<linearGradient id="paint18_linear_15_1752" x1="437.752" y1="280.627" x2="440.792" y2="280.627" gradientUnits="userSpaceOnUse">
<stop stop-color="white" stop-opacity="0"/>
<stop offset="0.630208" stop-color="white" stop-opacity="0.24"/>
<stop offset="1" stop-color="white" stop-opacity="0.08"/>
</linearGradient>
<linearGradient id="paint19_linear_15_1752" x1="220.699" y1="29.1248" x2="220.699" y2="37.6195" gradientUnits="userSpaceOnUse">
<stop/>
<stop offset="0.483028" stop-color="#484848"/>
<stop offset="1"/>
</linearGradient>
<radialGradient id="paint20_radial_15_1752" cx="0" cy="0" r="1" gradientUnits="userSpaceOnUse" gradientTransform="translate(264.172 37.317) rotate(-127.75) scale(8.44124 8.44554)">
<stop stop-color="#242424"/>
<stop offset="1" stop-color="#161616"/>
</radialGradient>
<radialGradient id="paint21_radial_15_1752" cx="0" cy="0" r="1" gradientUnits="userSpaceOnUse" gradientTransform="translate(262.651 33.373) rotate(90) scale(8.49465 8.51188)">
<stop offset="0.463542" stop-opacity="0.25"/>
<stop offset="0.645833" stop-opacity="0"/>
</radialGradient>
<linearGradient id="paint22_linear_15_1752" x1="262.651" y1="29.1245" x2="262.651" y2="37.6192" gradientUnits="userSpaceOnUse">
<stop stop-color="#0B528D"/>
<stop offset="0.276042" stop-color="#3625AF"/>
<stop offset="0.510417" stop-color="#070D17"/>
<stop offset="0.734375" stop-color="#16618F"/>
<stop offset="1" stop-color="#021762"/>
</linearGradient>
<radialGradient id="paint23_radial_15_1752" cx="0" cy="0" r="1" gradientUnits="userSpaceOnUse" gradientTransform="translate(259.308 32.4617) rotate(58.3406) scale(4.63348 4.63771)">
<stop stop-color="#070D17"/>
<stop offset="1" stop-color="#070D17" stop-opacity="0"/>
</radialGradient>
<radialGradient id="paint24_radial_15_1752" cx="0" cy="0" r="1" gradientUnits="userSpaceOnUse" gradientTransform="translate(263.259 33.9786) rotate(106.731) scale(3.16791 3.17327)">
<stop offset="0.146834" stop-color="#070D17"/>
<stop offset="1" stop-color="#070D17" stop-opacity="0"/>
</radialGradient>
<radialGradient id="paint25_radial_15_1752" cx="0" cy="0" r="1" gradientUnits="userSpaceOnUse" gradientTransform="translate(263.867 32.4617) rotate(128.717) scale(1.94411 1.94497)">
<stop stop-color="#6356D7"/>
<stop offset="1" stop-color="#15368A" stop-opacity="0"/>
</radialGradient>
<radialGradient id="paint26_radial_15_1752" cx="0" cy="0" r="1" gradientUnits="userSpaceOnUse" gradientTransform="translate(262.651 33.3718) rotate(90) scale(4.24731 4.25593)">
<stop offset="0.828125" stop-opacity="0"/>
<stop offset="1" stop-opacity="0.85"/>
</radialGradient>
<clipPath id="clip0_15_1752">
<rect width="390.772" height="884.748" fill="white" transform="translate(25.2373 20.2388)"/>
</clipPath>
<clipPath id="clip1_15_1752">
<rect width="100.198" height="100.198" fill="white" transform="translate(170.522 188.572)"/>
</clipPath>
</defs>
</svg>
